<?xml version="1.0" encoding="UTF-8"?>
<!DOCTYPE svg PUBLIC "-//W3C//DTD SVG 1.1//EN" "http://www.w3.org/Graphics/SVG/1.1/DTD/svg11.dtd">
<!-- Creator: CorelDRAW (Evaluation Version) -->
<svg xmlns="http://www.w3.org/2000/svg" xml:space="preserve" width="8.26772in" height="11.6929in" version="1.1" style="shape-rendering:geometricPrecision; text-rendering:geometricPrecision; image-rendering:optimizeQuality; fill-rule:evenodd; clip-rule:evenodd"
viewBox="0 0 82677.2 116929.1"
 xmlns:xlink="http://www.w3.org/1999/xlink"
 xmlns:xodm="http://www.corel.com/coreldraw/odm/2003">
 <defs>
  <style type="text/css">
   <![CDATA[
    .fil5 {fill:white}
    .fil2 {fill:#F26C36}
    .fil4 {fill:#37917C}
    .fil1 {fill:#00B0F0}
    .fil3 {fill:#0077BD}
    .fil6 {fill:white;fill-rule:nonzero}
    .fil8 {fill:#96989B;fill-rule:nonzero}
    .fil0 {fill:#373535;fill-rule:nonzero}
    .fil7 {fill:#1B5493;fill-rule:nonzero}
   ]]>
  </style>
 </defs>
 <g id="Layer_x0020_1">
  <metadata id="CorelCorpID_0Corel-Layer"/>
  <g id="_304284912">
   <path class="fil0" d="M7271.8 88068c146.6,0 281.9,22 405.8,65.9 123.9,44 230.6,110 319.8,197.9 89.3,88 158.6,198 207.9,329.9 49.4,131.9 74,285.9 74,461.8 0,221.2 -33.9,441.1 -102,659.7 -67.9,218.5 -168.5,415.1 -301.8,589.7 -133.2,174.6 -299.8,316.5 -499.8,425.8 -199.8,109.2 -433.1,163.9 -699.6,163.9 -149.3,0 -285.2,-22 -407.9,-66 -122.5,-43.9 -228.5,-109.9 -317.8,-197.9 -89.2,-88 -158.5,-197.9 -207.9,-329.8 -49.3,-132 -74,-285.9 -74,-461.8 0,-218.6 33.3,-437.8 100,-657.6 66.6,-220 167.3,-417.2 301.8,-591.7 134.6,-174.6 301.9,-316.6 501.9,-425.8 199.8,-109.3 433.1,-163.9 699.6,-163.9zm-555.8 2558.7c178.7,0 339.9,-43.3 483.7,-130 143.9,-86.6 265.9,-199.3 365.9,-337.8 99.9,-138.6 176.6,-294.5 229.8,-467.7 53.4,-173.3 80,-346.5 80,-519.8 0,-237.1 -51.3,-424.4 -154,-561.7 -102.5,-137.2 -265.8,-205.8 -489.8,-205.8 -181.1,0 -343.1,43.2 -485.7,129.9 -142.6,86.6 -263.9,199.1 -363.8,337.8 -100,138.6 -176.6,294.6 -229.9,467.8 -53.4,173.2 -80,346.5 -80,519.7 0,237.2 51.3,424.4 154,561.7 102.5,137.3 265.8,205.9 489.6,205.9zm2306.1 275.8l-371.8 0 479.8 -1998.9c122.6,-37.3 255.2,-67.4 397.8,-90 142.6,-22.6 269.8,-34 381.8,-34 119.9,0 223.2,16.7 309.8,50 86.6,33.2 156.6,78.5 209.8,135.9 53.3,57.4 92.6,126.7 118,207.9 25.3,81.3 37.9,169.9 37.9,265.8 0,61.3 -5.2,126 -15.9,193.9 -10.7,68.1 -24,136.7 -39.9,206l-255.9 1063.4 -371.8 0 235.9 -983.5c18.7,-74.6 36.7,-150.6 53.9,-227.8 17.3,-77.4 25.9,-150.6 25.9,-220 0,-106.5 -29.3,-195.2 -88,-265.8 -58.6,-70.7 -167.9,-105.9 -327.8,-105.9 -66.6,0 -131.9,4 -195.9,12 -63.9,8.1 -117.3,18.7 -159.9,32l-423.9 1759.1zm2562 -1091.4c154.6,-5.4 295.9,-15.4 423.7,-30 127.9,-14.7 238.5,-40 331.9,-75.9 93.3,-36.1 165.9,-84.7 217.9,-146 52,-61.2 78,-141.2 78,-239.9 0,-23.9 -4.7,-49.3 -14,-75.9 -9.3,-26.7 -25.3,-51.3 -47.9,-74 -22.8,-22.6 -54.1,-41.3 -94,-56 -40,-14.7 -89.3,-22 -148,-22 -93.3,0 -180.6,19.9 -261.8,60 -81.4,40 -154,92.6 -217.9,158 -64,65.2 -118.6,141.2 -163.9,227.8 -45.4,86.6 -80,177.8 -104,273.9zm379.8 1143.4c-136,0 -253.2,-19.3 -351.9,-58 -98.7,-38.6 -181.3,-91.9 -247.9,-159.9 -66.7,-67.9 -115.9,-147.2 -147.9,-237.8 -32,-90.7 -48,-186.6 -48,-287.9 0,-186.6 28,-366.5 84,-539.7 56,-173.2 136,-326.5 239.9,-459.7 104,-133.3 230.6,-239.2 379.8,-317.8 149.2,-78.7 318.5,-118 507.8,-118 109.3,0 203.2,14 281.8,42 78.6,28 142.7,66 192,113.9 49.3,48 85.9,103.3 109.9,165.9 24,62.7 35.9,127.4 35.9,193.9 0,125.3 -22.6,231.2 -67.9,317.8 -45.3,86.7 -105.3,159.3 -179.9,217.9 -74.6,58.7 -161.9,104 -261.9,136 -100,32 -203.9,57.2 -311.9,75.9 -107.9,18.7 -217.2,31.3 -327.9,38 -110.6,6.7 -215.2,12.6 -313.7,18 -2.8,21.4 -4.1,38.7 -4.1,52 0,13.3 0,24 0,32 0,61.3 7.4,119.3 22,173.9 14.6,54.6 42,102.6 81.9,143.9 40,41.3 95.3,74 165.9,98 70.7,24 163.1,35.9 277.9,35.9 50.6,0 103.2,-4.6 157.8,-14 54.7,-9.3 106.6,-21.3 156,-36 49.3,-14.6 93.2,-29.3 131.9,-44 38.7,-14.6 66,-28.6 81.9,-42l32 315.9c-53.3,29.4 -139.3,60.7 -257.9,94 -118.6,33.2 -257.8,50 -417.7,50zm2342.1 -52l663.7 -2770.6 1619.2 0 -76 323.9 -1235.4 0 -203.9 847.6 1095.5 0 -76 315.8 -1091.4 0 -307.8 1283.3 -387.8 0zm3669.3 24c-13.3,-29.3 -26.7,-62 -40,-98 -13.3,-36 -24,-74 -32,-113.9 -58.6,53.3 -137.2,106.7 -235.9,159.9 -98.5,53.4 -219.8,80 -363.8,80 -117.2,0 -217.9,-18.7 -301.8,-56 -84,-37.3 -152.6,-89.3 -205.9,-155.9 -53.3,-66.7 -92.6,-145.3 -117.9,-235.9 -25.4,-90.7 -38,-190.6 -38,-299.8 0,-178.5 30,-353.2 90,-523.8 60,-170.6 149.9,-322.5 269.8,-455.7 120,-133.2 270.5,-241.1 451.8,-323.7 181.3,-82.7 393.1,-124 635.7,-124 72,0 155.9,8.1 251.9,24 95.9,16.1 178.5,42.7 247.8,80l-307.8 1255.4c-13.4,61.2 -24.7,119.9 -34,175.8 -9.3,56 -14,114.7 -14,175.9 0,61.3 5.4,123.3 15.9,185.9 10.7,62.6 29.3,130 56,201.9l-327.8 48zm-595.6 -287.9c111.9,0 207.9,-24 287.8,-71.9 80,-48 149.3,-104 207.9,-168 2.7,-45.3 7.4,-92.6 14,-141.9 6.7,-49.3 15.4,-99.2 25.9,-149.8l239.9 -991.5c-13.3,-5.4 -35.3,-9.3 -65.9,-12 -30.7,-2.6 -58,-4 -81.9,-4 -152,0 -289.3,29.4 -411.9,88 -122.6,58.6 -227.2,136.5 -313.8,233.8 -86.6,97.3 -153.3,210.6 -200,339.9 -46.7,129.2 -70,264.4 -70,405.8 0,55.9 5.4,112.6 16,169.9 10.7,57.2 30,107.9 58,151.9 28,43.9 65.3,79.9 112,107.9 46.7,28 107.3,42 181.9,42zm3973.1 -1859.1c117.3,0 216.5,18 297.9,54 81.3,36 146.6,84.6 195.8,145.9 49.3,61.3 84.7,132.6 105.9,213.9 21.3,81.3 32,167.2 32,257.8 0,58.6 -4.6,121.9 -14,189.9 -9.3,68 -22,133.9 -38,197.9l-255.8 1063.4 -371.8 0 235.8 -983.5c13.4,-61.2 28.7,-130 46,-205.9 17.4,-76 26.1,-151.2 26.1,-225.9 0,-50.6 -6.1,-99.9 -18,-148 -12,-48 -32,-89.3 -60,-123.9 -28,-34.7 -67.4,-62.7 -118,-84 -50.6,-21.3 -113.2,-32 -187.9,-32 -85.2,0 -168,16.6 -247.8,50 -80,33.3 -146.6,67.4 -199.9,102 5.4,37.3 10,74 14,109.9 4,36 6,71.3 6,105.9 0,61.3 -4.6,123.3 -14,185.9 -9.3,62.6 -20.7,124.6 -34,185.9l-255.8 1063.4 -371.9 0 235.9 -983.5c13.3,-61.2 28,-130.5 44.1,-207.9 15.9,-77.2 23.9,-154.5 23.9,-231.8 0,-50.6 -5.2,-99.3 -15.9,-146 -10.7,-46.7 -28.7,-87.3 -53.9,-121.9 -25.4,-34.7 -59.4,-62 -102,-82 -42.7,-20 -97.3,-30 -164,-30 -66.6,0 -131.2,4 -193.9,12 -62.6,8.1 -115.3,18.7 -157.8,32l-423.9 1759.1 -371.8 0 479.8 -1998.9c120,-37.3 251.3,-67.4 393.9,-90 142.6,-22.6 269.8,-34 381.8,-34 112,0 206.5,19.3 283.8,58 77.4,38.5 138.6,89.9 183.9,153.8 26.7,-18.7 63.4,-39.9 110,-63.9 46.5,-23.9 99.9,-46.7 159.9,-68 60,-21.3 125.3,-39.9 195.8,-56 70.7,-15.9 143.3,-24 217.9,-24zm1494.4 2122.9l-371.8 0 499.8 -2078.9 371.8 0 -499.8 2078.9zm431.9 -2454.8c-61.3,0 -112.6,-18.7 -153.9,-56 -41.3,-37.2 -61.9,-89.2 -61.9,-155.9 0,-85.2 26.7,-152.6 79.9,-201.9 53.4,-49.3 113.3,-74 179.9,-74 61.3,0 113.3,19.3 155.9,58 42.7,38.6 64.1,92.5 64.1,161.8 0,80 -28,144.6 -84,193.9 -56,49.4 -115.9,74 -179.9,74zm966.8 1539.3c-13.4,58.6 -26.7,115.9 -40,171.9 -13.3,56 -19.9,109.3 -19.9,160 0,90.6 22,162.5 65.9,215.9 44.1,53.2 126,86.6 245.9,99.9l-84 303.9c-109.3,-2.6 -201.9,-19.4 -277.9,-50 -75.9,-30.6 -137.2,-71.3 -183.9,-122 -46.7,-50.6 -80.6,-110.6 -102,-179.9 -21.3,-69.2 -32,-145.2 -32,-227.8 0,-61.3 5.4,-125.3 16.1,-191.9 10.7,-66.7 25.2,-136 43.9,-207.9l503.8 -2095 387.8 -63.9 -523.7 2186.9zm1538.4 579.7c101.3,-159.9 193.2,-325.9 275.9,-497.8 82.6,-171.9 155.2,-336.5 217.8,-493.7 62.7,-157.2 115.3,-301.9 158,-433.8 42.7,-131.9 73.3,-237.8 92,-317.8l387.8 0c-29.4,101.3 -70.7,227.2 -123.9,377.8 -53.3,150.6 -118,313.2 -193.9,487.7 -76,174.6 -161.3,353.2 -255.9,535.7 -94.6,182.5 -197.9,357.8 -309.8,525.7 -85.4,125.3 -170.6,243.2 -255.9,353.8 -85.2,110.6 -176.6,206.5 -273.9,287.9 -97.2,81.2 -204.5,145.2 -321.8,191.9 -117.2,46.7 -249.2,70 -395.7,70 -74.6,0 -144,-9.3 -207.9,-28 -63.9,-18.7 -110.6,-38.7 -139.8,-60l127.9 -303.8c26.6,21.3 62.6,39.3 107.9,53.9 45.4,14.7 96,22 151.9,22 154.6,0 285.9,-37.2 393.9,-111.9 108,-74.6 210,-173.3 305.9,-295.9 -98.7,-322.5 -179.2,-662.3 -241.9,-1019.4 -62.6,-357.2 -100.6,-719.6 -113.9,-1087.4l379.8 0c2.6,120 9.3,251.1 19.9,393.7 10.7,142.7 26.1,290.5 46,443.8 20,153.3 44,307.2 72,461.8 28,154.6 60.6,302.5 97.9,443.8zm2917.9 -2434.8l387.7 0 -663.5 2770.6 -387.8 0 663.7 -2770.6zm3305.5 -63.9c146.6,0 281.9,22 405.8,65.9 123.9,44 230.6,110 319.8,197.9 89.3,88 158.6,198 207.9,329.9 49.4,131.9 74,285.9 74,461.8 0,221.2 -33.9,441.1 -102,659.7 -67.9,218.5 -168.5,415.1 -301.8,589.7 -133.2,174.6 -299.8,316.5 -499.8,425.8 -199.8,109.2 -433.1,163.9 -699.6,163.9 -149.3,0 -285.2,-22 -407.9,-66 -122.5,-43.9 -228.5,-109.9 -317.8,-197.9 -89.2,-88 -158.5,-197.9 -207.9,-329.8 -49.3,-132 -74,-285.9 -74,-461.8 0,-218.6 33.3,-437.8 100,-657.6 66.6,-220 167.3,-417.2 301.8,-591.7 134.6,-174.6 301.9,-316.6 501.9,-425.8 199.8,-109.3 433.1,-163.9 699.6,-163.9zm-555.8 2558.7c178.7,0 339.9,-43.3 483.7,-130 143.9,-86.6 265.9,-199.3 365.9,-337.8 99.9,-138.6 176.6,-294.5 229.8,-467.7 53.4,-173.3 80,-346.5 80,-519.8 0,-237.1 -51.3,-424.4 -154,-561.7 -102.5,-137.2 -265.8,-205.8 -489.8,-205.8 -181.1,0 -343.1,43.2 -485.7,129.9 -142.6,86.6 -263.9,199.1 -363.8,337.8 -100,138.6 -176.6,294.6 -229.9,467.8 -53.4,173.2 -80,346.5 -80,519.7 0,237.2 51.3,424.4 154,561.7 102.5,137.3 265.8,205.9 489.6,205.9zm2306.1 275.8l-371.8 0 479.8 -1998.9c122.6,-37.3 255.2,-67.4 397.8,-90 142.6,-22.6 269.8,-34 381.8,-34 119.9,0 223.2,16.7 309.8,50 86.6,33.2 156.6,78.5 209.8,135.9 53.4,57.4 92.6,126.7 118,207.9 25.3,81.3 37.9,169.9 37.9,265.8 0,61.3 -5.2,126 -15.9,193.9 -10.7,68.1 -24,136.7 -39.9,206l-255.9 1063.4 -371.8 0 235.9 -983.5c18.7,-74.6 36.7,-150.6 53.9,-227.8 17.3,-77.4 25.9,-150.6 25.9,-220 0,-106.5 -29.3,-195.2 -88,-265.8 -58.6,-70.7 -167.9,-105.9 -327.8,-105.9 -66.6,0 -131.9,4 -195.9,12 -63.9,8.1 -117.3,18.7 -159.9,32l-423.9 1759.1zm2562 -1091.4c154.6,-5.4 295.9,-15.4 423.7,-30 127.9,-14.7 238.5,-40 331.9,-75.9 93.3,-36.1 165.9,-84.7 217.9,-146 52,-61.2 78,-141.2 78,-239.9 0,-23.9 -4.7,-49.3 -14,-75.9 -9.3,-26.7 -25.3,-51.3 -47.9,-74 -22.8,-22.6 -54.1,-41.3 -94,-56 -40,-14.7 -89.3,-22 -148,-22 -93.3,0 -180.6,19.9 -261.8,60 -81.4,40 -154,92.6 -217.9,158 -64,65.2 -118.6,141.2 -163.9,227.8 -45.4,86.6 -80,177.8 -104,273.9zm379.8 1143.4c-136,0 -253.2,-19.3 -351.9,-58 -98.7,-38.6 -181.3,-91.9 -247.9,-159.9 -66.7,-67.9 -115.9,-147.2 -147.9,-237.8 -32,-90.7 -48,-186.6 -48,-287.9 0,-186.6 28,-366.5 84,-539.7 56,-173.2 136,-326.5 239.9,-459.7 104,-133.3 230.6,-239.2 379.8,-317.8 149.2,-78.7 318.5,-118 507.8,-118 109.3,0 203.2,14 281.8,42 78.6,28 142.7,66 192,113.9 49.3,48 85.9,103.3 109.9,165.9 24,62.7 35.9,127.4 35.9,193.9 0,125.3 -22.6,231.2 -67.9,317.8 -45.3,86.7 -105.3,159.3 -179.9,217.9 -74.6,58.7 -161.9,104 -261.9,136 -100,32 -203.9,57.2 -311.9,75.9 -107.9,18.7 -217.2,31.3 -327.8,38 -110.6,6.7 -215.2,12.6 -313.7,18 -2.8,21.4 -4.1,38.7 -4.1,52 0,13.3 0,24 0,32 0,61.3 7.4,119.3 22,173.9 14.6,54.6 42,102.6 81.9,143.9 40,41.3 95.3,74 165.9,98 70.7,24 163.1,35.9 277.9,35.9 50.6,0 103.2,-4.6 157.8,-14 54.7,-9.3 106.6,-21.3 156,-36 49.3,-14.6 93.2,-29.3 131.9,-44 38.7,-14.6 66,-28.6 81.9,-42l32 315.9c-53.3,29.4 -139.3,60.7 -257.9,94 -118.6,33.2 -257.8,50 -417.7,50zm3341.6 -511.7c112,-160 225.9,-331.8 341.8,-515.7 116,-184 231.9,-375.2 347.8,-573.7 116,-198.6 229.3,-400.4 339.9,-605.7 110.6,-205.2 216.5,-410.4 317.8,-615.6l427.8 0c-146.6,277.2 -289.8,540.4 -429.8,789.6 -139.9,249.2 -278.5,487.7 -415.8,715.5 -137.2,228 -274.4,446.5 -411.7,655.7 -137.2,209.3 -277.9,412.5 -421.9,609.7l-379.7 0c-40,-199.9 -77.4,-401.8 -112,-605.7 -34.7,-203.8 -66.7,-417.8 -95.9,-641.6 -29.3,-223.9 -58,-460.5 -86,-709.7 -28,-249.2 -55.3,-520.4 -81.9,-813.5l399.8 0c42.7,474.4 83.3,899.6 122,1275.3 38.7,375.9 84.7,721 138,1035.5zm2062.2 459.7l-371.8 0 499.8 -2078.9 371.8 0 -499.8 2078.9zm431.9 -2454.8c-61.3,0 -112.6,-18.7 -154,-56 -41.3,-37.2 -61.9,-89.2 -61.9,-155.9 0,-85.2 26.6,-152.6 79.9,-201.9 53.4,-49.3 113.3,-74 179.9,-74 61.3,0 113.3,19.3 155.9,58 42.6,38.6 64.1,92.5 64.1,161.8 0,80 -28,144.6 -84,193.9 -56,49.4 -116,74 -179.9,74zm930.7 2194.9c56,0 112.7,-5.2 170,-15.9 57.2,-10.7 107.9,-28 151.9,-52 43.9,-24 79.9,-56.7 107.9,-98 28,-41.3 42,-92.6 42,-153.9 0,-40.1 -6.6,-75.4 -20,-105.9 -13.3,-30.7 -34.6,-59.3 -63.9,-86 -29.3,-26.7 -65.9,-52.6 -109.9,-78 -43.9,-25.3 -96.6,-53.9 -158,-85.9 -61.2,-29.4 -117.2,-58.6 -167.8,-88 -50.7,-29.3 -95.4,-63.9 -133.9,-104 -38.7,-40 -68.6,-87.3 -90,-141.9 -21.3,-54.6 -32,-120.6 -32,-197.9 0,-199.8 72,-360.5 215.9,-481.7 143.9,-121.3 353.2,-182 627.7,-182 128,0 240.6,12.6 337.9,38 97.3,25.2 164.6,48.6 201.9,70l-139.9 303.9c-37.3,-21.4 -97.3,-44.1 -179.9,-68 -82.6,-24 -174.6,-36.1 -276,-36.1 -50.6,0 -101.3,5.4 -151.9,16 -50.6,10.7 -96.6,28.7 -137.9,53.9 -41.3,25.4 -74.6,58.6 -99.9,100 -25.3,41.3 -38,91.3 -38,149.9 0,71.9 28,131.3 84,177.8 56,46.7 140,95.4 251.8,146 69.3,32 131.3,64.6 185.9,98 54.6,33.2 101.3,70.6 140,111.9 38.6,41.3 68,90 88,146 19.9,55.9 29.9,122.6 29.9,199.8 0,112 -21.3,210.6 -63.9,295.9 -42.7,85.4 -102,155.9 -177.9,211.9 -76,56 -165.9,98 -269.9,126 -103.9,28 -217.2,42 -339.8,42 -90.6,0 -172.6,-6 -245.9,-18 -73.3,-12.1 -137.2,-26.1 -191.9,-42 -54.6,-16 -100,-32.6 -136,-50 -35.9,-17.4 -63.3,-31.4 -81.9,-42l144 -303.9c18.7,10.6 44.6,23.9 78,40 33.3,15.9 73.3,32 119.9,47.9 46.7,16 98,29.3 154,40 55.9,10.7 114.6,15.9 175.8,15.9zm1718.4 259.9l-371.8 0 499.8 -2078.9 371.8 0 -499.8 2078.9zm431.9 -2454.8c-61.3,0 -112.6,-18.7 -154,-56 -41.3,-37.2 -61.9,-89.2 -61.9,-155.9 0,-85.2 26.6,-152.6 79.9,-201.9 53.4,-49.3 113.3,-74 179.9,-74 61.3,0 113.3,19.3 155.9,58 42.6,38.6 64.1,92.5 64.1,161.8 0,80 -28,144.6 -84,193.9 -56,49.4 -116,74 -179.9,74zm1206.7 2506.8c-218.6,0 -389.9,-64.6 -513.8,-193.9 -123.9,-129.3 -185.9,-307.2 -185.9,-533.7 0,-154.6 22,-317.2 66,-487.8 43.9,-170.6 113.9,-327.8 209.8,-471.7 96,-144 220,-262.6 371.9,-355.9 151.9,-93.3 335.8,-140 551.7,-140 218.6,0 389.9,64.6 513.8,193.9 123.9,129.3 185.8,307.2 185.8,533.7 0,154.6 -22,317.3 -65.9,487.8 -44.1,170.6 -114,327.8 -210,471.7 -95.9,143.9 -219.8,262.5 -371.8,355.8 -151.9,93.3 -335.8,140 -551.7,140zm63.9 -315.9c119.9,0 227.1,-34.6 321.8,-103.9 94.6,-69.3 174.6,-158 239.9,-265.9 65.3,-107.9 115.3,-227.1 149.9,-357.8 34.7,-130.7 52,-257.2 52,-379.9 0,-135.9 -29.3,-243.9 -88,-323.7 -58.6,-80 -159.9,-119.9 -303.8,-119.9 -120,0 -227.2,34.6 -321.8,103.9 -94.7,69.3 -174.6,158 -239.9,265.8 -65.3,108 -115.3,227.2 -150,357.9 -34.6,130.6 -51.9,257.2 -51.9,379.7 0,136 29.3,244 88,323.9 58.6,80 159.9,120 303.8,120zm1950.2 263.9l-371.8 0 479.8 -1998.9c122.6,-37.3 255.2,-67.4 397.8,-90 142.6,-22.6 269.8,-34 381.8,-34 120,0 223.3,16.7 309.9,50 86.6,33.2 156.6,78.5 209.8,135.9 53.3,57.4 92.6,126.7 118,207.9 25.3,81.3 37.9,169.9 37.9,265.8 0,61.3 -5.2,126 -15.9,193.9 -10.7,68.1 -24,136.7 -40,206l-255.9 1063.4 -371.8 0 235.9 -983.5c18.7,-74.6 36.6,-150.6 53.9,-227.8 17.3,-77.4 25.9,-150.6 25.9,-220 0,-106.5 -29.3,-195.2 -88,-265.8 -58.6,-70.7 -167.8,-105.9 -327.8,-105.9 -66.6,0 -131.9,4 -195.8,12 -63.9,8.1 -117.3,18.7 -159.9,32l-423.9 1759.1zm3657.5 -2770.6l387.8 0 -663.6 2770.6 -387.8 0 663.7 -2770.6zm3305.6 -63.9c146.6,0 281.9,22 405.8,65.9 123.9,44 230.5,110 319.8,197.9 89.3,88 158.6,198 207.9,329.9 49.4,131.9 74,285.9 74,461.8 0,221.2 -33.9,441.1 -102,659.7 -67.9,218.5 -168.5,415.1 -301.8,589.7 -133.3,174.6 -299.8,316.5 -499.8,425.8 -199.8,109.2 -433.1,163.9 -699.6,163.9 -149.3,0 -285.2,-22 -407.8,-66 -122.6,-43.9 -228.5,-109.9 -317.8,-197.9 -89.2,-88 -158.5,-197.9 -207.9,-329.8 -49.3,-132 -74,-285.9 -74,-461.8 0,-218.6 33.3,-437.8 100,-657.6 66.5,-220 167.2,-417.2 301.8,-591.7 134.6,-174.6 301.9,-316.6 501.8,-425.8 199.8,-109.3 433.1,-163.9 699.6,-163.9zm-555.7 2558.7c178.7,0 339.9,-43.3 483.7,-130 143.9,-86.6 265.9,-199.3 365.8,-337.8 99.9,-138.6 176.6,-294.5 229.9,-467.7 53.4,-173.3 80,-346.5 80,-519.8 0,-237.1 -51.3,-424.4 -154,-561.7 -102.5,-137.2 -265.8,-205.8 -489.8,-205.8 -181.1,0 -343.1,43.2 -485.7,129.9 -142.6,86.6 -263.9,199.1 -363.8,337.8 -100,138.6 -176.6,294.6 -229.8,467.8 -53.4,173.2 -80,346.5 -80,519.7 0,237.2 51.3,424.4 154,561.7 102.5,137.3 265.8,205.9 489.6,205.9zm2306 275.8l-371.7 0 479.7 -1998.9c122.6,-37.3 255.2,-67.4 397.8,-90 142.6,-22.6 269.8,-34 381.8,-34 120,0 223.3,16.7 309.9,50 86.6,33.2 156.6,78.5 209.8,135.9 53.3,57.4 92.6,126.7 118,207.9 25.3,81.3 37.9,169.9 37.9,265.8 0,61.3 -5.2,126 -15.9,193.9 -10.7,68.1 -24,136.7 -40,206l-255.9 1063.4 -371.8 0 235.9 -983.5c18.7,-74.6 36.6,-150.6 53.9,-227.8 17.3,-77.4 25.9,-150.6 25.9,-220 0,-106.5 -29.3,-195.2 -88,-265.8 -58.6,-70.7 -167.9,-105.9 -327.9,-105.9 -66.5,0 -131.9,4 -195.8,12 -63.9,8.1 -117.3,18.7 -159.9,32l-423.9 1759.1zm2562 -1091.4c154.6,-5.4 295.9,-15.4 423.8,-30 127.9,-14.7 238.5,-40 331.8,-75.9 93.3,-36.1 165.9,-84.7 218,-146 52,-61.2 77.9,-141.2 77.9,-239.9 0,-23.9 -4.6,-49.3 -14,-75.9 -9.3,-26.7 -25.3,-51.3 -47.9,-74 -22.8,-22.6 -54.1,-41.3 -94,-56 -40,-14.7 -89.3,-22 -148,-22 -93.3,0 -180.6,19.9 -261.9,60 -81.3,40 -153.9,92.6 -217.9,158 -63.9,65.2 -118.5,141.2 -163.9,227.8 -45.4,86.6 -80,177.8 -104,273.9zm379.8 1143.4c-136,0 -253.2,-19.3 -351.9,-58 -98.7,-38.6 -181.3,-91.9 -247.8,-159.9 -66.7,-67.9 -115.9,-147.2 -147.9,-237.8 -32,-90.7 -48,-186.6 -48,-287.9 0,-186.6 28,-366.5 84,-539.7 56,-173.2 136,-326.5 239.9,-459.7 104,-133.3 230.6,-239.2 379.8,-317.8 149.2,-78.7 318.5,-118 507.8,-118 109.3,0 203.2,14 281.7,42 78.7,28 142.7,66 192,113.9 49.3,48 85.9,103.3 109.9,165.9 24,62.7 35.9,127.4 35.9,193.9 0,125.3 -22.6,231.2 -68,317.8 -45.3,86.7 -105.2,159.3 -179.9,217.9 -74.6,58.7 -161.9,104 -261.9,136 -100,32 -203.9,57.2 -311.9,75.9 -107.9,18.7 -217.2,31.3 -327.8,38 -110.6,6.7 -215.2,12.6 -313.7,18 -2.8,21.4 -4.1,38.7 -4.1,52 0,13.3 0,24 0,32 0,61.3 7.4,119.3 22.1,173.9 14.6,54.6 42,102.6 81.9,143.9 40,41.3 95.3,74 165.9,98 70.7,24 163.2,35.9 277.9,35.9 50.6,0 103.2,-4.6 157.8,-14 54.7,-9.3 106.6,-21.3 156,-36 49.3,-14.6 93.2,-29.3 131.9,-44 38.7,-14.6 66,-28.6 81.9,-42l32 315.9c-53.3,29.4 -139.3,60.7 -257.9,94 -118.6,33.2 -257.9,50 -417.8,50z"/>
   <path class="fil0" d="M65641 88727.7c-42.7,58.6 -95.9,134.5 -159.9,227.8 -64,93.3 -133.3,195.9 -207.9,307.8 -74.6,112 -151.9,228.6 -231.9,349.9 -79.9,121.2 -157.2,238.5 -231.9,351.8 -74.5,113.3 -143.9,218.6 -207.8,315.9 -64.1,97.3 -115.9,176.6 -156,237.8l-311.8 0c-10.7,-63.9 -24.7,-144.5 -42,-241.8 -17.3,-97.3 -36.7,-202.6 -57.9,-315.9 -21.4,-113.2 -43.3,-230.5 -66,-351.9 -22.6,-121.2 -45.3,-237.8 -67.9,-349.8 -22.6,-111.9 -43.3,-213.8 -62,-305.7 -18.7,-91.9 -34.6,-167.3 -47.9,-225.9 -112,343.7 -221.2,698.2 -327.8,1063.4 -106.7,365.2 -210.7,735.6 -311.9,1111.4l-383.7 0c63.9,-239.8 131.2,-481.8 201.9,-725.6 70.6,-243.9 142.6,-483.7 215.9,-719.6 73.3,-235.8 146.6,-465.8 219.8,-689.6 73.3,-223.8 144.6,-435.8 213.9,-635.7l379.8 0c32.1,117.2 66,255.8 101.9,415.8 36.1,159.9 72,327.2 108,501.7 36,174.5 69.3,348.4 99.9,521.7 30.7,173.2 56.7,330.5 78,471.7 96,-143.9 202,-302.5 317.8,-475.7 115.9,-173.3 232.6,-347.2 349.9,-521.8 117.2,-174.5 231.1,-341.1 341.7,-499.8 110.6,-158.6 210,-296.6 298,-413.8l371.7 0c-45.3,450.4 -105.9,908.2 -181.8,1373.3 -76,465.1 -159.3,930.9 -249.9,1397.3l-387.8 0c80,-383.8 153.3,-756.3 219.8,-1117.4 66.7,-361.1 125.3,-713.6 175.9,-1057.4zm1150.7 2174.8l-371.8 0 499.8 -2078.9 371.8 0 -499.8 2078.9zm431.9 -2454.8c-61.3,0 -112.6,-18.7 -154,-56 -41.3,-37.2 -61.9,-89.2 -61.9,-155.9 0,-85.2 26.6,-152.6 79.9,-201.9 53.4,-49.3 113.3,-74 179.9,-74 61.3,0 113.3,19.3 155.9,58 42.6,38.6 64.1,92.5 64.1,161.8 0,80 -28,144.6 -84,193.9 -56,49.4 -116,74 -179.9,74zm930.7 2194.9c56,0 112.7,-5.2 170,-15.9 57.2,-10.7 107.9,-28 151.9,-52 43.9,-24 79.9,-56.7 107.9,-98 28,-41.3 42,-92.6 42,-153.9 0,-40.1 -6.6,-75.4 -20,-105.9 -13.3,-30.7 -34.6,-59.3 -63.9,-86 -29.3,-26.7 -65.9,-52.6 -109.9,-78 -43.9,-25.3 -96.6,-53.9 -158,-85.9 -61.2,-29.4 -117.2,-58.6 -167.8,-88 -50.7,-29.3 -95.4,-63.9 -133.9,-104 -38.7,-40 -68.6,-87.3 -90,-141.9 -21.3,-54.6 -32,-120.6 -32,-197.9 0,-199.8 72,-360.5 215.9,-481.7 144,-121.3 353.2,-182 627.7,-182 128,0 240.6,12.6 337.8,38 97.3,25.2 164.6,48.6 201.9,70l-139.9 303.9c-37.3,-21.4 -97.3,-44.1 -179.9,-68 -82.6,-24 -174.6,-36.1 -276,-36.1 -50.6,0 -101.3,5.4 -151.9,16 -50.6,10.7 -96.6,28.7 -137.9,53.9 -41.3,25.4 -74.6,58.6 -99.9,100 -25.3,41.3 -38,91.3 -38,149.9 0,71.9 28,131.3 84,177.8 56,46.7 140,95.4 251.8,146 69.3,32 131.3,64.6 185.9,98 54.6,33.2 101.3,70.6 140,111.9 38.6,41.3 68,90 88,146 19.9,55.9 30,122.6 30,199.8 0,112 -21.3,210.6 -64,295.9 -42.7,85.4 -102,155.9 -177.9,211.9 -76,56 -165.9,98 -269.9,126 -103.9,28 -217.2,42 -339.8,42 -90.6,0 -172.6,-6 -245.9,-18 -73.3,-12.1 -137.2,-26.1 -191.9,-42 -54.6,-16 -100,-32.6 -136,-50 -36,-17.4 -63.3,-31.4 -82,-42l144 -303.9c18.7,10.6 44.6,23.9 78,40 33.3,15.9 73.3,32 119.9,47.9 46.7,16 98,29.3 154,40 55.9,10.7 114.6,15.9 175.8,15.9zm1866.4 0c56,0 112.6,-5.2 170,-15.9 57.2,-10.7 107.9,-28 151.9,-52 43.9,-24 79.9,-56.7 107.9,-98 28,-41.3 42,-92.6 42,-153.9 0,-40.1 -6.6,-75.4 -20,-105.9 -13.3,-30.7 -34.6,-59.3 -63.9,-86 -29.3,-26.7 -65.9,-52.6 -109.9,-78 -43.9,-25.3 -96.6,-53.9 -158,-85.9 -61.2,-29.4 -117.2,-58.6 -167.8,-88 -50.6,-29.3 -95.4,-63.9 -133.9,-104 -38.7,-40 -68.6,-87.3 -90,-141.9 -21.3,-54.6 -32,-120.6 -32,-197.9 0,-199.8 72,-360.5 215.9,-481.7 144,-121.3 353.2,-182 627.7,-182 128,0 240.6,12.6 337.8,38 97.3,25.2 164.6,48.6 201.9,70l-139.9 303.9c-37.3,-21.4 -97.3,-44.1 -179.9,-68 -82.6,-24 -174.6,-36.1 -275.9,-36.1 -50.7,0 -101.3,5.4 -151.9,16 -50.6,10.7 -96.6,28.7 -137.9,53.9 -41.3,25.4 -74.5,58.6 -99.9,100 -25.3,41.3 -38,91.3 -38,149.9 0,71.9 28,131.3 84,177.8 56,46.7 140,95.4 251.8,146 69.3,32 131.3,64.6 185.9,98 54.6,33.2 101.3,70.6 140,111.9 38.6,41.3 68,90 88,146 19.9,55.9 30,122.6 30,199.8 0,112 -21.3,210.6 -64,295.9 -42.7,85.4 -102,155.9 -177.8,211.9 -76,56 -165.9,98 -269.9,126 -103.9,28 -217.2,42 -339.8,42 -90.6,0 -172.6,-6 -245.9,-18 -73.3,-12.1 -137.2,-26.1 -191.9,-42 -54.6,-16 -100,-32.6 -136,-50 -36,-17.4 -63.3,-31.4 -81.9,-42l143.9 -303.9c18.7,10.6 44.6,23.9 78,40 33.3,15.9 73.3,32 119.9,47.9 46.7,16 98,29.3 154,40 55.9,10.7 114.6,15.9 175.8,15.9zm1718.4 259.9l-371.8 0 499.8 -2078.9 371.8 0 -499.8 2078.9zm431.9 -2454.8c-61.3,0 -112.6,-18.7 -154,-56 -41.3,-37.2 -61.9,-89.2 -61.9,-155.9 0,-85.2 26.6,-152.6 79.9,-201.9 53.4,-49.3 113.3,-74 179.9,-74 61.3,0 113.3,19.3 155.9,58 42.7,38.6 64.1,92.5 64.1,161.8 0,80 -28,144.6 -84,193.9 -56,49.4 -115.9,74 -179.9,74zm1206.7 2506.8c-218.6,0 -389.9,-64.6 -513.8,-193.9 -123.9,-129.3 -185.9,-307.2 -185.9,-533.7 0,-154.6 22.1,-317.2 66,-487.8 43.9,-170.6 113.9,-327.8 209.8,-471.7 96.1,-144 220,-262.6 371.9,-355.9 151.9,-93.3 335.8,-140 551.7,-140 218.6,0 389.9,64.6 513.8,193.9 123.9,129.3 185.8,307.2 185.8,533.7 0,154.6 -21.9,317.3 -65.9,487.8 -44.1,170.6 -114,327.8 -210,471.7 -95.9,143.9 -219.8,262.5 -371.8,355.8 -151.9,93.3 -335.8,140 -551.7,140zm63.9 -315.9c120,0 227.1,-34.6 321.8,-103.9 94.6,-69.3 174.6,-158 239.9,-265.9 65.3,-107.9 115.3,-227.1 149.9,-357.8 34.7,-130.7 52,-257.2 52,-379.9 0,-135.9 -29.4,-243.9 -88,-323.7 -58.6,-80 -159.9,-119.9 -303.8,-119.9 -119.9,0 -227.2,34.6 -321.8,103.9 -94.7,69.3 -174.6,158 -239.9,265.8 -65.3,108 -115.3,227.2 -150,357.9 -34.6,130.6 -51.9,257.2 -51.9,379.7 0,136 29.2,244 88,323.9 58.6,80 159.9,120 303.8,120zm1950.2 263.9l-371.7 0 479.7 -1998.9c122.6,-37.3 255.3,-67.4 397.8,-90 142.6,-22.6 269.8,-34 381.8,-34 120,0 223.3,16.7 309.9,50 86.6,33.2 156.6,78.5 209.8,135.9 53.3,57.4 92.6,126.7 118,207.9 25.3,81.3 37.9,169.9 37.9,265.8 0,61.3 -5.2,126 -15.9,193.9 -10.7,68.1 -24,136.7 -40,206l-255.9 1063.4 -371.8 0 235.9 -983.5c18.7,-74.6 36.6,-150.6 53.9,-227.8 17.3,-77.4 25.9,-150.6 25.9,-220 0,-106.5 -29.3,-195.2 -88,-265.8 -58.6,-70.7 -167.9,-105.9 -327.9,-105.9 -66.5,0 -131.9,4 -195.8,12 -63.9,8.1 -117.3,18.7 -159.9,32l-423.9 1759.1z"/>
  </g>
  <g id="_451762576">
   <path class="fil1" d="M37674.6 47533.2c-1181.8,-2994.3 -1066.7,-5932.2 243.8,-8818.3 2630.1,630.7 4914.9,669.8 6786.4,0 1461,3509.7 1397,6432.8 40.6,8858.9 -2357,-798.3 -4713.7,-759.6 -7070.8,-40.6z"/>
   <path class="fil1" d="M47331.7 49127.2c-743.7,-494.3 -1533.5,-887.8 -2350.3,-1180.6 -607.2,1363.1 -1478.1,2606.7 -2575.7,3652.9 1921.5,-251.4 3638.9,-1151 4926,-2472.2zm-6339.3 2349.1l0 -4163.8c-934.1,26.7 -1865.4,173.2 -2769.8,439.8 638.7,1410.9 1577.3,2684.9 2769.8,3724zm0 -4787l623.3 0c1016,27.4 2029.1,189 3011.4,484.8 439.4,-1140.8 688.3,-2358.8 724,-3606l0 -623.3c-38.5,-1348.3 -326.3,-2662.4 -834.6,-3882 -939.3,272.3 -1913.9,424.7 -2900.8,449.8l-623.3 0.1c-986.9,-25.2 -1961.6,-177.7 -2901,-450 -508.3,1219.6 -796.1,2533.6 -834.6,3882l0 623.3c35.6,1247.2 284.6,2465.2 724,3606.1 982.4,-295.9 1995.6,-457.5 3011.6,-484.9zm0 -7800.1l0 -3852.7c-1115.4,971.9 -2008.7,2149.3 -2642.1,3451.9 857,240.9 1744.1,376.6 2642.1,400.9zm623.3 -3852.5l0 3852.5c897.9,-24.3 1785,-160 2641.9,-400.9 -633.3,-1302.6 -1526.5,-2479.7 -2641.9,-3451.6zm0 12275.8l0 4163.5c1192.6,-1039.1 2131.1,-2313 2769.7,-3723.8 -904.4,-266.5 -1835.7,-413 -2769.7,-439.6zm-243 4981l-2.2 0 -2.1 0.1c-19.6,0.5 -39.5,0.8 -59.3,0.8l-1 0 -0.2 0 -0.8 0 -1 0 -1 0 -1 0 -0.9 0 -0.8 0 -0.9 0 -0.9 0 -0.4 0 -0.5 0 -0.9 0c-16.8,0 -33.7,-0.2 -50.5,-0.7l-2.2 0 -2.2 -0.1 -2 0c-4962.9,-33.6 -8976.1,-4066.5 -8976.1,-9037.4 0,-4971.4 4014.4,-9005 8978.1,-9037.4l2.2 0 2.2 -0.1c17.7,-0.5 35.3,-0.6 53.1,-0.7l0.9 0 0.8 0 0.9 0 0.9 0 0.9 0 0.8 0c17.8,0 35.6,0.2 53.3,0.7l2.1 0.1 2 0c4963.9,32.4 8978,4066 8978,9037.4l-0.1 8.3c-4.7,2294.4 -863.5,4388.2 -2275.2,5980.6 -17,26.1 -37.7,49.3 -61.1,68.9 -1639.3,1812 -4002.1,2957 -6633,2979.5zm-1170.2 -694.1c-1097.6,-1046.2 -1968.6,-2289.8 -2575.8,-3652.8 -816.8,292.8 -1606.5,686.2 -2350.4,1180.6 1287,1321.1 3004.6,2220.9 4926.2,2472.2zm-5348.5 -2939.4c800.6,-541.3 1652.4,-971.2 2534.4,-1290 -459.7,-1203.2 -719.3,-2487.2 -754.8,-3802l-3738.1 0c70.6,1935.6 794.6,3704.4 1958.5,5092zm-1958.5 -5715.3l3738.1 0c38.1,-1413.7 335.4,-2792 862,-4072.5 -865.8,-303 -1696.1,-710.2 -2471.9,-1215.8 -1262.8,1415.4 -2054.4,3260.1 -2128.3,5288.3zm2568.5 -5746.1c719.2,457.4 1486.5,826.2 2285.3,1101.7 599.5,-1259.1 1427.4,-2409.2 2453.2,-3386.9 -1829.6,239.3 -3474.4,1066.2 -4738.5,2285.2zm6943.1 -2283.8c1025.2,977.3 1852.6,2127.1 2451.9,3385.5 797.4,-275 1563.6,-643.2 2281.8,-1099.4 -1263.3,-1218 -2906,-2045 -4733.7,-2286.1zm5173.9 2743.7c-774.8,504.6 -1603.9,911.1 -2468.5,1213.7 526.7,1280.5 824.1,2658.8 862.3,4072.5l3737.4 0c-76,-2027.3 -868.1,-3871.3 -2131.2,-5286.1zm2131.5 5909.5l-3737.8 0c-35.6,1314.7 -295.2,2598.7 -755,3802 882.1,318.7 1733.9,748.7 2534.4,1289.9 1163.9,-1387.7 1887.8,-3156.3 1958.4,-5091.9z"/>
   <g>
    <g>
     <g>
      <path class="fil2" d="M32962.9 29591.5l602.8 1564.1 2041.4 1609.9 -532.6 390.4 501.1 753.5 50 72.3 335.1 1122.4 305.3 -13.6 37 246.8 -505.6 22.6 -383.5 -1284.7 -786.5 -600.4 -322.8 233.5 251.3 1028.5 50 72.3 879.5 830.9 -76.7 398.8 -270.3 -35.6 99.1 -307.6 -884.1 -769.7 -473.8 -914.4 -540.7 395.2 -879 -2557.8 -1091.6 -882c112,372 -193.5,2379.8 -329.2,2755.4l-222.1 -110c195.2,-540.4 273.7,-1075.5 247.3,-1618.7 -26.3,-540.7 -169.8,-1192.6 -392.3,-1766.5l-8.6 -12.3 803.6 -566.9 -239.8 -343c-162.3,32.7 -340.3,-14.6 -482.6,-129.6 -93.9,-72.7 -263.7,-253.7 -254.1,-552.1 7.6,-163.9 81.1,-315.8 215.2,-410.5 246.6,-174 604.8,-88.4 800.3,191.2 163.1,233.3 161.1,527.8 12.8,720l228.2 326.5 937.5 -661.3 3 4.2c463.2,408.1 1006.9,782.5 1507.1,992.1 499.6,209.4 959.3,407.3 1531.4,406.4l27.7 247.2c-1053,1.9 -1900.7,-155.5 -2790.9,-847.4z"/>
      <path class="fil2" d="M37309.9 27584.2l1120.9 1650.2 -814.3 2680 1005 -193.1 -99.6 932.7 18.4 84.9 590.3 999.3 -221 211.4 155.2 193.3 365.9 -350 -675.7 -1143.8 103.9 -973.4 394.1 -75.7 -98.8 924.9 18.4 84.9 590.3 999.3 -221 211.4 155.2 193.3 365.9 -350 -675.7 -1143.8 103.1 -965.6 941.6 -180.9 -1615.4 -2200.9 135.4 -1849.3c235.7,401.3 2102.6,1730.6 2568.3,1926.7l73 -234.7c-701.6,-295.6 -2386.1,-1635.9 -2718.4,-2319.3l-3.1 -14.5 -630.9 128.8 -85.5 -404.6c136.1,-95.2 224.5,-255.7 238.6,-436.1 26.6,2.4 53.7,1.1 80.8,-4.4 164.8,-33.7 267.1,-208.7 228.5,-391.2 -38.6,-182.5 -203.3,-303 -368.1,-269.4 -70,14.3 -128.6,53.9 -170,108.9 -125.3,-105 -287.3,-154.5 -449.3,-121.5 -297.9,60.8 -482.8,377.4 -413.1,707.2 58.1,275.2 275.2,472.5 518.5,495l81.4 385.1 -792.6 161.9 1.1 5c-27.8,794.7 -986.4,2631.1 -1528.9,3196.4l162 186.7c388.6,-404.8 1513.5,-2311.9 1565.7,-2845.3z"/>
     </g>
     <g>
      <path class="fil2" d="M45887 27892.2l-761.1 1493.5 166 2594.5 -646.3 -135.4 -225.9 876.3 -20.4 85.5 -611.3 999.2 214.1 218.1 -158.9 192.5 -354.6 -361.1 699.8 -1143.6 -78.7 -986.4 -389.3 -84.2 -597.4 874.1 -20.4 85.5 -30.7 1209.5 -348 209.4 -154.2 -224.9 295 -131.8 -17.9 -1172.1 363.9 -963.5 -655.3 -138.2 1315.9 -2362.9 -73 -1401.5c-202,331.9 -1900,1445.9 -2270.2,1595.9l-66.6 -238.8c532.5,-215.8 983.1,-514.8 1369.7,-897.4 384.7,-380.7 774,-923.1 1052.3,-1472l3.4 -14.6 958.6 219.2 95 -407.6c-132.7,-98.9 -216.5,-263 -225.9,-445.7 -8.6,-118.5 12.7,-365.7 241.1,-558 127,-103.8 289.2,-150.7 449.2,-114.1 294.2,67.3 469.9,391.1 392.4,723.2 -64.6,277.2 -285.1,472.6 -527.2,490.6l-90.5 388 1118.4 255.7 -1.2 5c5.8,617.3 90.5,1272 268.7,1784.3 178,511.7 337.8,985.9 720.7,1411l-165.4 185.7c-704.9,-782.3 -1154.1,-1518.2 -1234.1,-2642.8z"/>
      <path class="fil2" d="M50284.7 29785.7l-479 1936.5 -2538.1 1184.6 815.1 618.8 -760.6 549 -50.9 70.4 -349.2 1106.9 -305 -23.2 -40.2 244.6 504.9 38.5 399.6 -1267 793.7 -573 319.5 242.6 -754.2 544.4 -50.9 70.4 -349.2 1106.9 -305 -23.2 -40.2 244.6 504.9 38.4 399.6 -1266.9 787.4 -568.4 763.6 579.8 558.4 -2672.3 1466.5 -1134.8c-141.1,443.5 117,2720.7 282.2,3198.3l223.4 -102.5c-248.7,-719.5 -376.9,-2868.3 -90.4,-3572.2l8.8 -12 -517.4 -383.4 244 -334c161.8,37.7 340.2,-3.8 483.9,-113.8 16,21.4 35.1,40.7 57.3,57.2 135.2,100.2 333.7,59.3 443.8,-91.3 110,-150.6 89.7,-353.7 -45.5,-453.9 -57.4,-42.5 -126,-59.6 -194.6,-53.7 -5.5,-163.4 -77,-317 -209.8,-415.5 -244.3,-181 -603.3,-107.1 -802.2,165.1 -165.9,227.1 -167.8,520.4 -22,716.5l-232.2 317.9 -650 -481.7 -3 4.1c-609.9,510.2 -2616.8,1023.8 -3399.8,997.8l-30.7 245.3c560.8,18.7 2731.4,-418.3 3163.1,-735.8z"/>
     </g>
     <path class="fil2" d="M55785.9 36373.5l-1619.8 431.5 -1819.6 1856.9 -331 -571.4 -803 417.4 -77.2 41.9 -1151.9 212.7 -19.2 305 -249.4 10.4 31.8 -505 1318.4 -243.4 681.4 -717.6 -197.5 -345.9 -1049.5 139.4 -77.2 41.9 -920.5 785.3 -388.3 -119 64.3 -264.9 295.2 131.5 860.2 -796.4 960 -372.9 -334.9 -580 2637.3 -599.5 994.1 -990.6c-381.9,71.5 -2345.3,-447.7 -2704.2,-623l133.2 -209.1c516.3,252 1039.9,387.5 1582.8,419.6 540.4,31.9 1203.9,-40.8 1798.4,-200.5l13.1 -7.2 477.4 859.7 366.8 -201.6c-15.1,-164.8 51.1,-336.7 180.7,-465.9 82.4,-85.6 280.6,-234.9 576.2,-193.4 162.1,25.2 305.4,114.5 385,258 146.5,263.9 23,610.9 -276,775.2 -249.4,137.1 -542.1,103.5 -717.3,-64.6l-349.1 191.9 556.9 1003 -4.5 2.5c-455.4,416.7 -886,917.2 -1148.1,1392 -261.8,474.3 -507.9,910 -568.4,1478.9l-248.7 1c111.1,-1047.1 358.6,-1873.1 1142,-2683.9z"/>
    </g>
    <path class="fil3" d="M57315.1 40910.8l-1760.9 937.4 -2577.1 -1097.1 84.1 1019.9 -916.7 -199.1 -86.4 9.2 -1056.9 479.7 -186.5 -242.4 -208.8 133.5 308.7 401.4 1209.7 -549.1 956.6 207.8 33 399.9 -909 -197.5 -86.4 9.2 -1056.9 479.7 -186.5 -242.4 -208.8 133.5 308.7 401.3 1209.7 -549.1 949 206.1 78.8 955.6 2361.5 -1369.9 1824.1 333.1c-424.3,191.3 -1946.3,1904.8 -2191.2,2346.7l225.5 97.8c369.2,-665.8 1882.4,-2196.8 2597.6,-2453.8l14.8 -1.5 -60.4 -641.1 411.5 -41.6c80,145.6 230.2,250.6 408,284.1 -5.2,26.2 -6.8,53.3 -4.2,80.9 15.7,167.5 178.8,287.9 364.4,269.2 185.6,-18.7 323.1,-169.6 307.4,-337 -6.7,-71.1 -39.9,-133.6 -90.1,-180.7 117.9,-113.3 184.5,-269.1 169,-433.7 -28.5,-302.7 -323.4,-520.5 -658.8,-486.6 -279.8,28.3 -499.3,222.8 -547.8,462.3l-391.7 39.6 -75.9 -805.4 -5.1 0.5c-787.1,-112.9 -2510,-1263 -3013.9,-1863.1l-203 141.1c360.7,429.8 2136.1,1752.9 2660.8,1862z"/>
    <path class="fil3" d="M56088.5 49405.4l-1403.2 -917 -2597.4 -113.4 204 -628 -847 -318.6 -82.8 -29.4 -927.8 -715 -239.8 189.5 -174.3 -178.7 397 -313.7 1061.9 818.4 989.1 27.6 125.5 -378.1 -805 -687.8 -82.8 -29.4 -1199.3 -160.3 -170.9 -368.4 240.1 -129.1 99.4 307.4 1167.2 108 918.9 465.2 207.8 -636.7 2208.1 1561.9 1401.3 77.9c-308.3,-236.5 -1233.7,-2044.2 -1343.1,-2428.3l244.5 -40.5c157.4,552.6 406.4,1032.7 745.3,1458 337.2,423.4 834.7,868.6 1350.6,1204.2l14.2 5 -320.8 929.6 395 138.2c112.6,-121.3 284.7,-187 467.4,-176.8 118.7,4.2 362.2,51.8 528.9,299.5 89.6,137.5 118.8,303.7 65.2,458.9 -98.5,285.3 -439.2,425.2 -761.2,312.5 -268.6,-94 -439.2,-334.1 -431.2,-576.8l-375.9 -131.6 -374.3 1084.4 -4.9 -1.7c-614.3,-60.5 -1274.4,-46.5 -1802.8,75.7 -527.8,122 -1016.4,230.1 -1480.2,565.2l-166.9 -184.4c853.4,-616.9 1633.3,-984.6 2760,-943.3z"/>
    <path class="fil4" d="M53734 53574.6l-1873.9 -684 -905.4 -2650.6 -702.7 744 -464.3 -815.1 -64.6 -58.1 -1063 -465.9 55.8 -300.7 -238.9 -66.2 -92.4 497.9 1216.8 533.2 484.4 850.6 -275.5 291.7 -460.3 -808.2 -64.6 -58.1 -1063 -465.9 55.8 -300.7 -238.8 -66.2 -92.4 497.9 1216.7 533.3 480.6 843.8 -658.3 697 2597 842 970.8 1579.8c-425.8,-187.8 -2717.6,-175.6 -3210.1,-62.6l78 233.1c742.1,-170.1 2892.2,-66.9 3561.3,293.4l10.9 10 436.7 -473.3 305.9 278.4c-54.8,156.8 -32.8,338.7 61.2,493.3 -23,13.6 -44.3,30.6 -63,50.9 -114.1,123.7 -94.8,325.4 43.1,451 138,125.6 342,127.2 456.1,3.5 48.4,-52.5 72.8,-118.9 74.3,-187.8 163.1,12 323.5,-42.5 435.6,-164.1 206.1,-223.4 171.2,-588.4 -78.1,-815.3 -208,-189.3 -499.4,-222.6 -710,-98.7l-291.1 -265 548.6 -594.5 -3.8 -3.5c-441.9,-661.1 -737.2,-2711.5 -627.2,-3487.3l-240.6 -56.9c-78.8,555.6 122.8,2760.6 392.2,3223.9z"/>
    <path class="fil4" d="M46593.9 58337l-255.2 -1656.7 -1650.9 -2008.4 603.6 -267.8 -328.8 -843.1 -33.4 -81.3 -87.8 -1168 -301.2 -51.9 16.5 -249 498.7 85.8 100.5 1336.9 640.3 754.4 365.1 -159.3 -26.1 -1058.4 -33.4 -81.3 -682 -999.4 160 -373.3 256.5 92.4 -162.4 279.4 699.5 940.7 267.7 994.5 612.6 -270.8 313 2686.5 878.2 1094.7c-30,-387.4 696.8,-2283.7 909.6,-2621.7l193.5 154.8c-306,486.3 -496.9,992.3 -587,1528.7 -89.7,533.8 -88.6,1201.4 6.3,1809.5l5.8 13.9 -906 382.3 161 386.3c165.6,2.7 329.3,86.9 443.8,229.6 76.2,91.1 203.5,304.1 130.5,593.6 -42.4,158.5 -146.6,291.3 -297.8,355.1 -278.1,117.4 -609.8,-42.7 -741.1,-357.6 -109.5,-262.7 -44.8,-550.1 141.1,-706.2l-153.3 -367.6 -1057 446 -2 -4.8c-365.5,-497.5 -816.8,-979.3 -1260.7,-1290.9 -443.5,-311.2 -850.3,-602.6 -1409.4,-723.8l25.7 -247.4c1029.1,222.9 1823.8,557.5 2545.8,1423.4z"/>
    <path class="fil4" d="M41918.7 59370.5l-743 -1851.4 1367.4 -2444.5 -1023 -25.8 296.3 -890 0.1 -86.9 -363.5 -1102.2 261.1 -159.4 -110.4 -221.9 -432.2 263.9 416.1 1261.7 -309.3 928.8 -401.1 -10.2 293.9 -882.5 0.2 -86.9 -363.5 -1102.2 261 -159.4 -110.3 -221.9 -432.2 263.9 416.1 1261.7 -306.8 921.4 -958.5 -24.2 1108.5 2494.8 -526.9 1777.8c-144.7,-442.3 -1685,-2139.4 -2098,-2430.4l-121.4 213.7c622.4,438.5 1982.1,2107.3 2160.9,2845.9l-0.1 14.8 643.9 8.7 -2.8 413.6c-153.3,64 -273.9,201.9 -326.2,375.2 -25.5,-8 -52.2,-12.5 -79.9,-12.9 -168.2,-2.3 -305.5,146.9 -306.7,333.5 -1.3,186.5 133.9,339.4 302.1,341.7 71.4,0.9 137.1,-25.3 189.3,-70.2 100,129.4 247.7,212.3 413.1,214.5 303.9,4.1 552.2,-265.7 554.5,-602.8 1.9,-281.3 -168,-520.4 -400.9,-594.3l2.7 -393.6 808.9 11 0 -5.1c196.7,-770.5 1525.1,-2360 2175.7,-2796.5l-118.4 -217c-466,312.6 -1972,1935.7 -2136.8,2445.6z"/>
    <path class="fil4" d="M28669.1 53010.5l1490.4 -767.2 1381.5 -2202.4 445.3 487.6 695.4 -579.1 66.5 -57.5 1080 -453.5 -46.3 -302.1 241.4 -63.3 76.7 500.2 -1236.1 519.1 -512.6 846.4 266.8 295.8 995.6 -360.2 66.5 -57.5 731.7 -963.5 404.7 33.4 -6.3 272.6 -316.4 -65.5 -670.4 961.6 -858.3 569.2 451 495.2 -2448.7 1148.4 -759.8 1179.9c357.9,-151.3 2386.8,-63 2774.8,31.6l-85.5 232.6c-558.2,-136 -1098.7,-156.7 -1635.9,-72.2 -534.7,84.1 -1167.5,296.8 -1714.2,579.6l-11.3 9.9 -649.8 -738.1 -315.3 275.2c49.9,157.8 22,339.9 -77.1,493.7 -62.2,101.1 -224,289.4 -521.7,311.9 -163.8,10 -322.7,-46.7 -431.2,-169.9 -199.4,-226.5 -152.8,-591.9 104.3,-816.2 214.4,-187.2 507.5,-216.9 714.5,-90l300.1 -261.9 -758.1 -861.1 3.9 -3.4c356,-504.3 669.9,-1085.1 824.6,-1604.8 154.6,-519.2 302,-997.4 239.8,-1566.2l242.8 -54c114.8,1046.7 49.3,1906.5 -543,2865.7z"/>
    <path class="fil3" d="M26207 48904l1520.4 -1291.5 2751.9 522 -299.8 -978.5 938 -1.1 82.4 -27.4 930.2 -694.1 233.9 197 175.5 -175 -387.3 -326.3 -1064.7 794.6 -978.9 1.1 -117.5 -383.7 930.2 -1 82.4 -27.4 930.2 -694.2 233.9 197.1 175.5 -175 -387.3 -326.2 -1064.7 794.5 -971.1 1.1 -280.9 -916.7 -2014.8 1842.2 -1853.1 63.8c373.6,-277.4 1495,-2276.2 1640,-2760.2l-241.2 -47.4c-218.7,729.3 -1370.4,2547.9 -2014.1,2951.6l-14.1 4.6 195.8 613.5 -393.1 128.4c-109.3,-125.1 -278.3,-195.7 -459.2,-190.4 -0.5,-26.7 -4.7,-53.5 -13.1,-79.9 -51.1,-160.3 -236.1,-243.1 -413.5,-185.2 -177.4,58 -279.5,234.6 -228.3,394.9 21.7,68 67.4,122 126.6,157.3 -91,135.9 -122.8,302.2 -72.5,459.8 92.4,289.6 427,439.5 747.4,334.8 267.4,-87.3 440.3,-324.3 436.6,-568.6l374.2 -122.2 245.9 770.7 4.9 -1.6c793.1,-57.7 2721.7,698.3 3342,1177.1l168.2 -181.1c-444.1,-342.9 -2460.9,-1256.7 -2996.8,-1251.4z"/>
    <path class="fil3" d="M25592.8 40343.3l1566.5 596.4 2561.8 -443.4 -65.3 657.1 895.5 130.6 87.2 11.1 1059 500.6 193.8 -236.3 208.4 137.3 -320.9 391.3 -1212.1 -573 -972.2 184.1 -41.9 396.1 933.2 500.2 87.2 11.1 1205.8 -99.3 245.5 323.5 -207 177.4 -162.7 -279.2 -1163.4 143.6 -997 -258.4 -67.1 666.3 -2490.5 -1054.8 -1385.6 222.9c351.7,165.2 1641.5,1733.9 1830.3,2085.8l-230.3 91.8c-271.7,-506.3 -617.4,-922.2 -1039.2,-1265.5 -419.8,-341.7 -1000.8,-670.4 -1576.5,-888.3l-14.9 -1.9 115.1 -976.6 -415.4 -50.7c-84.1,142.6 -238.2,243.4 -418.9,272.4 -116.9,21.3 -365,26.7 -580.6,-179.8 -116.8,-115.2 -180.9,-271.3 -161.7,-434.4 35.3,-299.7 338.4,-509.1 677,-467.7 282.5,34.5 500.4,232.8 544.3,471.5l395.4 48.3 134.2 -1139.4 5.2 0.6c613.1,-72 1255,-226.5 1745.1,-458.6 489.6,-231.9 944,-441.7 1325.6,-868l202.4 144.5c-702.1,784.8 -1385.6,1310.4 -2495.1,1510.6z"/>
    <path class="fil2" d="M27003.4 35767.8l1976.7 268.4 1450.1 2396.3 527.8 -876.8 627.4 697.2 75.5 43 1138 228.3 9.6 305.7 247.5 13.7 -16 -506.1 -1302.5 -261.4 -654.8 -727.6 207 -343.7 622.2 691.4 75.4 43 1138 228.4 9.6 305.7 247.5 13.7 -16 -506.1 -1302.5 -261.4 -649.6 -721.9 494.5 -821.4 -2716.8 -268.4 -1285.6 -1336.3c456.1,92.7 2692.5,-408.3 3149.5,-623.7l-125.9 -211.1c-688.7,324.5 -2811.3,682.5 -3541.9,473.2l-12.8 -7.4 -325.7 555.5 -358.2 -206.8c20.1,-164.8 -40.3,-337.9 -165.1,-468.9 19.5,-18.2 36.7,-39.3 50.7,-63.1 85.1,-145.2 23.1,-338.1 -138.4,-431.4 -161.6,-93.2 -361.3,-51.2 -446.3,93.9 -36.1,61.6 -45.7,131.7 -32.5,199.3 -161.9,23 -306.9,110.6 -390.6,253.2 -153.7,262.2 -41.7,611.4 250.2,779.9 243.6,140.6 535.4,110.9 714.7,-55l340.9 196.7 -409.1 697.9 4.4 2.6c572.8,551.6 1298.7,2491.8 1356.9,3273.1l247.2 4.2c-41.6,-559.6 -709.1,-2670.8 -1071,-3065.9z"/>
    <path class="fil4" d="M35249.6 58195.1l81.4 -1993.2 2249.4 -1668.9 -922.5 -443 635.2 -690.2 35.7 -79.2 120.4 -1154.4 303.5 -38.3 -9.6 -247.7 -502.4 63.5 -137.8 1321.3 -662.8 720.4 -361.7 -173.7 629.8 -684.4 35.7 -79.2 120.4 -1154.4 303.4 -38.3 -9.6 -247.6 -502.3 63.5 -137.8 1321.3 -657.6 714.6 -864.3 -415.1 -11.8 2730 -1209.5 1405.5c49.4,-462.8 -659.6,-2642.2 -917.1,-3076.9l-198.3 145.2c387.8,655.1 943.8,2734.7 804.1,3481.7l-6.2 13.5 583.7 272 -172.1 376.1c-166.1,-4.5 -332.6,71.9 -451.3,208.5 -20,-17.7 -42.6,-32.9 -67.6,-44.6 -152.5,-71.1 -338.8,8.7 -416.5,178.4 -77.7,169.6 -17.1,364.5 135.4,435.6 64.7,30.2 135.4,33.1 201.4,13.6 38.2,159 138.9,295.2 288.8,365 275.6,128.4 612.6,-15.9 752.9,-322.4 117.1,-255.7 60.1,-543.5 -122,-706.4l163.8 -357.9 733.3 341.7 2.1 -4.6c495.3,-622.1 2358.7,-1527.2 3131.1,-1658.6l-19.1 -246.5c-553.2,94 -2592.3,957 -2951.7,1354.5z"/>
   </g>
   <path class="fil5" d="M42037.7 39974.6l0 1864.6 -1305.9 0 0 -43.8c0,-283.5 -13.8,-461.4 -39.8,-533.4 -27.6,-70.5 -78.2,-130.2 -151.7,-179.3 -73.6,-50.6 -157.9,-75.1 -254.4,-75.1 -153.2,0 -338.7,47.5 -557.9,144.1l-81.3 -156.3 2242.3 -1020.8 148.7 0zm257.5 5960.6c99.3,73.2 272.8,99.6 504.2,99.6l139.5 0 0 156.3 -3209.4 0 0 -156.3 162.4 0c400.6,0 644.9,-166.2 896.5,-787.9l576.5 -1369.4 520.5 1369.4c54.5,169.6 175.5,515.6 409.7,688.3z"/>
   <path class="fil6" d="M43381.1 42109.2l0 71.8c-52.2,4.3 -96.6,19.1 -132.5,44.5 -36,26.1 -67.8,64.9 -95.9,117 -7.7,16.9 -50.7,124.1 -128.3,321.5l-877.7 2313 -75.4 0 -693.7 -1825.2 -768.3 1825.2 -73.4 0 -924.9 -2289c-93.7,-231.9 -158.6,-372.9 -195.9,-421.6 -37.3,-48.5 -100,-76.8 -188.2,-85.3l0 -71.8 1214.7 0 0 71.8c-98,2.8 -162.9,17.7 -195.2,45.2 -32.5,26.8 -48.7,60.6 -48.7,100.9 0,52.9 33.8,165 101.6,336.3l549.1 1360.6 444.8 -1074.4 -111.4 -289.8c-63.4,-162.8 -112.1,-272.1 -146.6,-326.3 -34.6,-54.3 -74.1,-93.8 -119.1,-117.1 -44.5,-23.2 -110,-35.3 -196.7,-35.3l0 -71.8 1346.5 0 0 71.8c-94.5,1.5 -163,9.2 -204.4,23.4 -28.9,9.1 -51.5,26 -67.8,48.5 -16.9,23.3 -24.6,49.4 -24.6,78.3 0,32.4 30.3,130.4 92.4,294.6l509.6 1327.4 456.1 -1201.3c48,-124.7 77.6,-210 88.8,-256.5 11.3,-45.9 16.2,-88.2 16.2,-127 0,-57.1 -19.1,-101.4 -57.8,-134.7 -38.1,-32.3 -112.1,-50 -220.7,-52.9l0 -71.8 727.5 0z"/>
  </g>
  <path class="fil7" d="M26000.9 65163c-4001.3,0 -6834.8,2929.2 -6834.8,6720 0,4001.3 2795.2,6528.5 6643.3,6528.5 4116.1,0 6911.4,-2508 6911.4,-6681.7 0,-3886.5 -2737.8,-6566.9 -6719.9,-6566.9zm3656.6 6815.7c0,3101.5 -976.3,5552.2 -3484.3,5552.2 -3120.7,0 -3943.9,-3752.5 -3943.9,-6088.2 0,-3197.3 1263.5,-5399 3618.4,-5399 2374,0 3809.7,2661.2 3809.7,5935zm22189.4 -5890.3c133.9,-153.2 114.8,-577.6 -57.5,-673.3 -536.1,38.3 -1091.3,51.1 -1761.3,51.1 -574.4,0 -1340.3,-12.8 -1952.8,-51.1 -172.4,95.7 -210.6,501.1 -57.4,673.3l421.1 114.8c248.9,76.6 363.8,134.1 363.8,268.1 0,210.5 -382.9,1301.8 -517,1627.2 -918.9,2332.6 -1818.8,4706.5 -2737.8,6924.3 -114.8,-268.1 -344.6,-823.3 -842.3,-1873.1l-899.9 -1933.7c-134.1,-306.3 -153.1,-421.1 -153.1,-478.6 0,-95.7 248.9,-650.9 421.3,-995.6 248.9,-500.9 727.5,-1381.6 1187,-2166.5 670,-1148.7 804.1,-1225.3 1455,-1359.4l536.1 -114.8c172.3,-127.7 134.1,-590.4 -19.1,-686.1 -497.8,38.3 -1206.1,51.1 -1952.8,51.1 -631.8,0 -1321,-12.8 -1876.3,-51.1 -172.3,95.7 -191.4,539.3 -57.4,673.3l574.4 134.1c306.3,76.6 383,133.9 383,268 0,114.8 -191.5,689.3 -517,1416.8l-172.3 382.9c-191.5,421.1 -382.9,800.9 -574.4,1202.9 -172.3,-344.6 -363.7,-762.5 -536,-1164.7l-574.4 -1320.9c-95.7,-210.6 -172.3,-421.3 -172.3,-574.4 0,-133.9 287.2,-210.5 517,-268l325.4 -76.6c134.1,-95.7 153.1,-615.9 -76.6,-673.3 -497.8,38.3 -1225.4,51.1 -2201.7,51.1 -842.4,0 -1589.1,-12.8 -2412.3,-51.1 -210.6,76.6 -248.9,520.2 -57.5,673.3l191.5 19.1c727.5,76.6 861.6,210.6 1301.8,1167.9l1838 4036.4c76.6,191.5 114.8,402.1 114.8,517 0,114.8 -114.8,536.1 -248.9,842.4l-248.9 555.2c-382.9,858.4 -689.3,1432.7 -919,1853.9 -229.8,-459.4 -421.1,-861.5 -957.2,-2045.4l-1895.4 -4227.9c-593.5,-1340.2 -995.6,-2239.9 -995.6,-2374 0,-133.9 134.1,-229.8 478.6,-287.1l344.7 -57.4c191.4,-115 114.8,-596.7 -38.3,-673.3 -727.5,38.3 -1474.2,51.1 -2316.5,51.1 -976.5,0 -1780.5,-12.8 -2488.9,-51.1 -210.6,95.7 -229.8,481.8 -76.6,673.3l478.6 95.7c631.8,134 746.7,229.7 1263.6,1359.3l3139.8 6847.7c650.9,1435.9 1416.7,3158.9 1723.1,3963 172.3,95.7 287.2,153.1 497.7,153.1 287.2,0 536.1,-57.4 631.8,-153.1 306.3,-631.8 517,-1187 804.2,-1799.7l899.8 -1952.8c248.9,-536 478.6,-992.3 651,-1317.8 172.3,287.1 421.2,858.2 689.1,1470.9l804.2 1818.8c229.6,536.1 516.9,1225.4 727.5,1684.8 134.1,95.7 306.3,153.1 516.9,153.1 249,0 517,-57.4 631.8,-153.1 938.1,-2488.9 3101.6,-7252.8 4039.7,-9489.6 517,-1206.1 842.4,-1818.8 1052.9,-2125.1 134.1,-172.3 344.7,-325.5 785,-421.1l574.4 -134.1zm6949.6 -925.4c-1991.2,0 -3943.9,574.3 -5303.3,1704 -1321.1,1091.3 -2316.5,2737.8 -2316.5,5073.4 0,2374.1 1053,3963.1 2431.5,5016.1 1359.3,1014.7 3273.7,1455.1 5150,1455.1 1493.3,0 2852.7,-421.1 3886.5,-708.3 268,-440.4 593.4,-1589 727.5,-3005.8 -114.8,-229.7 -574.3,-287.2 -727.5,-134 -517,1301.8 -1589,2967.5 -3905.7,2967.5 -2297.4,0 -4499.1,-2048.5 -4499.1,-5858.5 0,-3809.9 2278.3,-5628.7 4403.4,-5628.7 1857.1,0 3082.3,957.2 3599.3,2737.8 133.9,172.3 650.9,95.7 727.5,-134 -172.3,-1110.4 -229.7,-2642 -229.7,-2986.7 -574.3,-38.2 -1991.1,-497.8 -3943.9,-497.8z"/>
  <path class="fil0" d="M6341.3 82887.8c0,194.3 23.8,369.4 71.3,525.5 47.6,156.1 116.1,290.3 205.6,402.7 89.4,112.3 198.9,198.9 328.4,259.8 129.5,61 278,91.4 445.5,91.4 163.7,0 311.2,-30.4 442.6,-91.4 131.3,-60.9 241.8,-147.5 331.3,-259.8 89.4,-112.4 158.1,-246.6 205.6,-402.7 47.6,-156.1 71.3,-331.3 71.3,-525.5 0,-194.1 -23.8,-370.3 -71.3,-528.2 -47.6,-158.1 -116.2,-293.2 -205.6,-405.6 -89.4,-112.3 -199.9,-198.9 -331.3,-259.9 -131.4,-60.9 -278.9,-91.4 -442.6,-91.4 -167.5,0 -316,31.4 -445.5,94.2 -129.5,62.8 -239,150.5 -328.4,262.8 -89.5,112.3 -158,247.5 -205.6,405.6 -47.6,157.9 -71.3,332.2 -71.3,522.5zm3021.3 0c0,338.9 -50.4,636.9 -151.3,893.9 -100.9,257.1 -238.9,472.2 -414.1,645.4 -175.1,173.3 -383.6,303.7 -625.4,391.2 -241.8,87.6 -501.6,131.5 -779.6,131.5 -270.4,0 -525.5,-43.8 -765.4,-131.5 -239.9,-87.5 -449.3,-217.9 -628.3,-391.2 -179,-173.2 -319.9,-388.3 -422.6,-645.4 -102.9,-256.9 -154.2,-555 -154.2,-893.9 0,-338.9 53.3,-636.8 159.9,-893.9 106.6,-256.9 250.4,-473 431.2,-648.1 180.9,-175.2 390.3,-306.6 628.3,-394.2 238,-87.5 488.3,-131.3 751.1,-131.3 270.4,0 525.5,43.8 765.4,131.3 239.9,87.6 449.3,219 628.3,394.2 178.9,175.1 319.8,391.2 422.6,648.1 102.8,257.1 154.2,555 154.2,893.9zm3398.5 1982c-255.2,-453.1 -531.2,-900.6 -828.2,-1342.2 -297,-441.8 -613,-858.7 -948.1,-1250.8l0 2593 -879.6 0 0 -3958.1 725.4 0c125.6,125.6 264.6,279.8 417,462.6 152.2,182.9 307.5,378 465.4,585.5 158.1,207.6 315.1,422.6 471.2,645.5 156.1,222.7 302.7,437 439.8,642.5l0 -2336 885.3 0 0 3958.1 -748.2 0zm1662 0l0 -3958.1 2673 0 0 748.2 -1782 0 0 776.8 1582.1 0 0 731.1 -1582.1 0 0 953.8 1913.5 0 0 748.2 -2804.4 0zm7491.5 -3535.5c45.7,156.1 96.1,332.3 151.3,528.3 55.2,196.1 114.3,398.9 177,608.2 62.8,209.5 125.6,418.9 190.4,628.3 64.8,209.5 127.6,403.6 188.5,582.6 49.5,-194.1 100.8,-405.6 152.3,-633.9 51.4,-228.5 99.9,-464.6 145.6,-708.3 46.7,-243.7 91.4,-486.5 135.2,-728.3 43.8,-241.7 84.7,-475 123.7,-699.6l925.3 0c-134.2,662.5 -288.4,1334.6 -462.6,2016.2 -174.2,681.5 -362.6,1328.9 -565.4,1941.9l-814.9 0c-133.3,-365.5 -262.8,-749.2 -388.4,-1150.9 -124.7,-401.7 -248.4,-804.3 -370.3,-1208 -121.8,403.6 -243.6,806.3 -365.4,1208 -122.9,401.7 -250.4,785.4 -383.7,1150.9l-813.9 0c-202.8,-613 -391.2,-1260.4 -565.4,-1941.9 -174.2,-681.7 -327.5,-1353.7 -461.7,-2016.2l965.2 0c38.1,224.6 80,457.9 126.7,699.6 45.6,241.8 93.3,484.5 142.8,728.3 50.4,243.7 100.8,479.8 152.2,708.3 51.4,228.4 104.7,439.8 158.1,633.9 68.5,-186.6 135.2,-384.6 199.8,-594 65.8,-209.4 128.6,-418.9 189.5,-628.3 61,-209.4 117.1,-411.3 168.5,-605.4 51.5,-194.3 98,-367.4 140,-519.8l759.5 0zm3446 1553.5c0,194.3 23.8,369.4 71.3,525.5 47.6,156.1 116.1,290.3 205.6,402.7 89.4,112.3 198.9,198.9 328.4,259.8 129.5,61 278,91.4 445.5,91.4 163.7,0 311.2,-30.4 442.6,-91.4 131.3,-60.9 241.8,-147.5 331.3,-259.8 89.4,-112.4 158.1,-246.6 205.6,-402.7 47.6,-156.1 71.3,-331.3 71.3,-525.5 0,-194.1 -23.8,-370.3 -71.3,-528.2 -47.6,-158.1 -116.2,-293.2 -205.6,-405.6 -89.4,-112.3 -199.9,-198.9 -331.3,-259.9 -131.4,-60.9 -278.9,-91.4 -442.6,-91.4 -167.5,0 -316,31.4 -445.5,94.2 -129.5,62.8 -239,150.5 -328.4,262.8 -89.5,112.3 -158,247.5 -205.6,405.6 -47.6,157.9 -71.3,332.2 -71.3,522.5zm3021.3 0c0,338.9 -50.4,636.9 -151.3,893.9 -100.9,257.1 -239,472.2 -414.1,645.4 -175.1,173.3 -383.6,303.7 -625.4,391.2 -241.8,87.6 -501.6,131.5 -779.6,131.5 -270.4,0 -525.5,-43.8 -765.4,-131.5 -239.9,-87.5 -449.3,-217.9 -628.3,-391.2 -179,-173.2 -319.9,-388.3 -422.6,-645.4 -102.9,-256.9 -154.2,-555 -154.2,-893.9 0,-338.9 53.3,-636.8 159.9,-893.9 106.6,-256.9 250.4,-473 431.2,-648.1 180.9,-175.2 390.3,-306.6 628.3,-394.2 238,-87.5 488.3,-131.3 751.1,-131.3 270.4,0 525.5,43.8 765.4,131.3 239.9,87.6 449.3,219 628.3,394.2 178.9,175.1 319.8,391.2 422.6,648.1 102.8,257.1 154.2,555 154.2,893.9zm1902 -2021.9c594,0 1049.1,105.7 1365.1,317 316.1,211.3 474.1,539.7 474.1,985.2 0,278 -63.7,503.5 -191.3,676.9 -127.6,173.2 -311.3,309.4 -551.2,408.4 80,99 163.7,212.2 251.4,339.8 87.5,127.6 174.2,260.8 259.8,399.8 85.7,139 168.5,283.6 248.5,434 79.9,150.4 154.2,297.9 222.7,442.7l-995.7 0c-73.3,-129.5 -146.6,-260.8 -220.9,-394.1 -75.2,-133.3 -151.3,-262.8 -229.4,-388.4 -78.9,-125.7 -156.1,-244.7 -232.2,-357 -76.1,-112.3 -153.3,-214.3 -229.4,-305.7l-439.8 0 0 1445.1 -891 0 0 -3901c194.3,-38.1 395.1,-64.8 602.7,-80 207.4,-15.2 393,-22.9 556.8,-22.9zm51.5 759.7c-64.8,0 -122.8,1.9 -174.2,5.7 -51.5,3.9 -99.9,7.6 -145.7,11.5l0 1073.7 251.4 0c335,0 574.9,-41.9 719.6,-125.7 144.6,-83.7 217,-226.5 217,-428.3 0,-194.3 -73.3,-332.3 -219.8,-414.1 -146.6,-81.8 -362.6,-122.8 -648.3,-122.8zm5243.2 2478.8l0 765.4 -2644.5 0 0 -3958.1 891 0 0 3192.7 1753.5 0zm1462.1 40.1c41.9,3.7 90.5,6.6 145.7,8.5 55.2,2 120.9,2.9 197.1,2.9 445.5,0 775.9,-112.3 990.9,-337 215.2,-224.7 322.8,-535 322.8,-931.1 0,-415 -102.8,-729.1 -308.4,-942.3 -205.6,-213.3 -531.2,-319.9 -976.7,-319.9 -61,0 -123.8,0.9 -188.6,2.8 -64.6,2 -125.6,6.7 -182.8,14.4l0 2501.7zm2576 -1256.7c0,342.8 -53.4,641.7 -159.9,896.8 -106.7,255 -258,466.5 -454.2,634 -196.1,167.5 -435,293.1 -716.8,377 -281.8,83.8 -597.8,125.6 -948.1,125.6 -159.9,0 -346.5,-6.7 -559.8,-20 -213.1,-13.3 -422.6,-41 -628.2,-82.9l0 -3855.2c205.6,-38.1 419.8,-63.8 642.6,-77.1 222.7,-13.3 414.1,-20 574,-20 338.9,0 646.3,38.1 922.4,114.3 276.1,76.1 513.1,196.2 711.1,359.8 198,163.8 350.4,373.3 457,628.3 106.5,255.1 159.9,561.7 159.9,919.6zm3918.1 2062c-643.5,0 -1133.7,-179 -1470.7,-536.9 -337,-358 -505.5,-866.3 -505.5,-1525.1 0,-327.4 51.3,-619.6 154.2,-876.7 102.8,-257.1 243.7,-474.1 422.6,-651.1 179,-177 392.2,-311.2 639.6,-402.7 247.5,-91.4 516.1,-137 805.4,-137 167.5,0 319.8,12.4 456.9,37.1 137.1,24.8 257,53.4 359.8,85.7 102.8,32.3 188.5,65.6 257.1,99.9 68.5,34.4 118,61 148.5,80l-257.1 719.6c-121.9,-64.8 -263.7,-119.9 -425.5,-165.6 -161.8,-45.7 -345.6,-68.6 -551.2,-68.6 -137,0 -271.3,22.9 -402.6,68.6 -131.4,45.6 -247.5,118.9 -348.4,219.8 -100.9,100.9 -181.9,231.3 -242.7,391.2 -61,160 -91.4,354.1 -91.4,582.6 0,182.8 19.9,353.1 60,511.1 39.9,158.1 104.7,294.2 194.1,408.4 89.6,114.3 206.7,204.6 351.3,271.3 144.8,66.6 319.9,99.9 525.5,99.9 129.4,0 245.6,-7.6 348.3,-22.9 102.9,-15.1 194.2,-33.2 274.2,-54.2 79.9,-20.9 150.4,-44.8 211.3,-71.5 60.9,-26.6 116.1,-51.4 165.6,-74.2l245.7 713.9c-125.7,76.1 -302.8,144.6 -531.2,205.6 -228.5,60.9 -493.2,91.4 -793.9,91.4zm2501.8 -2062c0,194.3 23.8,369.4 71.3,525.5 47.6,156.1 116.1,290.3 205.6,402.7 89.4,112.3 198.9,198.9 328.4,259.8 129.5,61 278,91.4 445.5,91.4 163.7,0 311.2,-30.4 442.6,-91.4 131.3,-60.9 241.8,-147.5 331.3,-259.8 89.4,-112.4 158.1,-246.6 205.6,-402.7 47.6,-156.1 71.3,-331.3 71.3,-525.5 0,-194.1 -23.8,-370.3 -71.3,-528.2 -47.6,-158.1 -116.2,-293.2 -205.6,-405.6 -89.4,-112.3 -199.9,-198.9 -331.3,-259.9 -131.4,-60.9 -278.9,-91.4 -442.6,-91.4 -167.5,0 -316,31.4 -445.5,94.2 -129.5,62.8 -239,150.5 -328.4,262.8 -89.5,112.3 -158,247.5 -205.6,405.6 -47.6,157.9 -71.3,332.2 -71.3,522.5zm3021.4 0c0,338.9 -50.4,636.9 -151.4,893.9 -100.9,257.1 -238.9,472.2 -414.1,645.4 -175.1,173.3 -383.6,303.7 -625.4,391.2 -241.8,87.6 -501.6,131.5 -779.6,131.5 -270.4,0 -525.5,-43.8 -765.4,-131.5 -239.9,-87.5 -449.3,-217.9 -628.3,-391.2 -179,-173.2 -319.8,-388.3 -422.6,-645.4 -102.8,-256.9 -154.2,-555 -154.2,-893.9 0,-338.9 53.3,-636.8 159.9,-893.9 106.6,-256.9 250.4,-473 431.2,-648.1 180.9,-175.2 390.3,-306.6 628.3,-394.2 238,-87.5 488.3,-131.3 751.1,-131.3 270.4,0 525.5,43.8 765.4,131.3 239.9,87.6 449.3,219 628.3,394.2 178.9,175.1 319.8,391.2 422.6,648.1 102.8,257.1 154.2,555 154.2,893.9zm1793.5 -1976.1c68.5,125.6 147.5,280.8 238,465.5 89.4,184.6 182.8,384.5 279.8,599.7 98.1,215.1 194.3,435 289.4,659.6 96.2,224.6 185.7,435.9 269.5,634 83.7,-198 174.2,-409.3 269.3,-634 95.2,-224.6 191.4,-444.6 289.4,-659.6 97.2,-215.2 190.4,-415.1 280,-599.7 90.4,-184.7 169.4,-339.9 238,-465.5l811 0c38.1,262.8 73.3,556.9 105.7,882.5 32.3,325.6 60.9,664.4 85.7,1016.6 24.7,352.2 47.6,705.3 68.5,1059.4 20.9,354.1 39,687.3 54.3,999.6l-868.1 0c-11.5,-384.6 -26.7,-803.4 -45.7,-1256.5 -19,-453.1 -47.6,-910 -85.7,-1370.7 -68.5,159.9 -144.6,336.9 -229.4,531.2 -83.8,194.1 -166.6,388.4 -249.3,582.5 -81.9,194.3 -160.9,379.8 -237,556.9 -77.2,177 -141.9,328.4 -195.2,454l-622.6 0c-53.4,-125.6 -118.1,-277 -195.2,-454 -76.1,-177.1 -155.2,-362.7 -237,-556.9 -82.8,-194.1 -165.7,-388.4 -249.4,-582.5 -83.7,-194.3 -160.9,-371.3 -229.4,-531.2 -38,460.7 -66.5,917.6 -85.7,1370.7 -19,453.1 -34.3,871.9 -45.6,1256.5l-868.1 0c15.2,-312.2 33.2,-645.4 54.2,-999.6 20.9,-354.1 43.8,-707.2 68.6,-1059.4 24.7,-352.2 53.3,-691.1 85.7,-1016.6 32.3,-325.6 67.5,-619.7 105.6,-882.5l851.1 0zm5123.2 0c68.5,125.6 147.5,280.8 238,465.5 89.4,184.6 182.8,384.5 279.8,599.7 98.1,215.1 194.3,435 289.4,659.6 96.1,224.6 185.7,435.9 269.4,634 83.8,-198 174.2,-409.3 269.4,-634 95.2,-224.6 191.4,-444.6 289.4,-659.6 97.2,-215.2 190.4,-415.1 279.9,-599.7 90.4,-184.7 169.4,-339.9 238,-465.5l811 0c38.1,262.8 73.3,556.9 105.7,882.5 32.3,325.6 60.9,664.4 85.7,1016.6 24.7,352.2 47.6,705.3 68.5,1059.4 20.9,354.1 39,687.3 54.3,999.6l-868.1 0c-11.5,-384.6 -26.8,-803.4 -45.7,-1256.5 -19,-453.1 -47.6,-910 -85.7,-1370.7 -68.5,159.9 -144.6,336.9 -229.4,531.2 -83.7,194.1 -166.6,388.4 -249.3,582.5 -81.9,194.3 -160.9,379.8 -237,556.9 -77.2,177 -141.9,328.4 -195.2,454l-622.6 0c-53.3,-125.6 -118.1,-277 -195.2,-454 -76.1,-177.1 -155.2,-362.7 -237,-556.9 -82.8,-194.1 -165.7,-388.4 -249.4,-582.5 -83.7,-194.3 -160.9,-371.3 -229.4,-531.2 -38,460.7 -66.6,917.6 -85.7,1370.7 -19,453.1 -34.3,871.9 -45.6,1256.5l-868.1 0c15.1,-312.2 33.2,-645.4 54.2,-999.6 20.9,-354.1 43.8,-707.2 68.6,-1059.4 24.7,-352.2 53.2,-691.1 85.7,-1016.6 32.3,-325.6 67.5,-619.7 105.6,-882.5l851.1 0zm5620.1 4038.1c-277.9,0 -517.8,-39.1 -719.6,-117.1 -201.8,-78.1 -368.3,-186.7 -499.8,-325.6 -131.3,-139.1 -228.4,-304.6 -291.2,-496.9 -63,-192.3 -94.3,-404.5 -94.3,-636.8l0 -2461.7 891 0 0 2387.4c0,160 18.1,296.1 54.3,408.4 36.2,112.3 85.7,203.7 148.5,274.1 62.8,70.4 139.1,120.9 228.5,151.3 89.4,30.5 187.5,45.7 294.1,45.7 217,0 393.2,-66.7 528.3,-200 135.1,-133.2 202.7,-359.8 202.7,-679.7l0 -2387.4 891 0 0 2461.7c0,232.3 -32.3,445.5 -97.1,639.6 -64.7,194.3 -163.7,360.9 -297,499.8 -133.2,138.9 -302.7,246.6 -508.3,322.7 -205.6,76.1 -449.3,114.3 -731.1,114.3zm5146.3 -80c-255.1,-453.1 -531.2,-900.6 -828.2,-1342.2 -297,-441.8 -613,-858.7 -948.1,-1250.8l0 2593 -879.6 0 0 -3958.1 725.5 0c125.6,125.6 264.6,279.8 416.9,462.6 152.2,182.9 307.5,378 465.4,585.5 158,207.6 315.1,422.6 471.2,645.5 156.1,222.7 302.7,437 439.8,642.5l0 -2336 885.3 0 0 3958.1 -748.2 0zm1662 -3958.1l891 0 0 3958.1 -891 0 0 -3958.1zm4740.7 0l0 759.6 -1193.7 0 0 3198.5 -891 0 0 -3198.5 -1193.7 0 0 -759.6 3278.4 0zm2215.1 1623c159.9,-269.4 312.2,-538.8 456.9,-808.1 145.7,-270.4 278.9,-541.7 400.8,-814.9l982.4 0c-217,426.5 -441.8,839.6 -674,1239.4 -232.2,399.8 -477.8,801.5 -736.7,1205.1l0 1513.6 -891 0 0 -1502.1c-259,-403.6 -505.5,-807.2 -739.7,-1210.9 -234.2,-403.6 -459.8,-818.6 -676.9,-1245.1l1033.8 0c121.8,273.2 253.2,544.5 393.2,814.9 140.9,269.3 291.2,538.7 451.2,808.1z"/>
  <polygon class="fil8" points="5180.8,86403.9 77440.2,86403.9 77440.2,86681.7 5180.8,86681.7 "/>
 </g>
</svg>
