<?xml version="1.0" encoding="UTF-8"?>
<!DOCTYPE svg PUBLIC "-//W3C//DTD SVG 1.1//EN" "http://www.w3.org/Graphics/SVG/1.1/DTD/svg11.dtd">
<!-- Creator: CorelDRAW (Evaluation Version) -->
<svg xmlns="http://www.w3.org/2000/svg" xml:space="preserve" width="4.42062in" height="1.33442in" version="1.1" style="shape-rendering:geometricPrecision; text-rendering:geometricPrecision; image-rendering:optimizeQuality; fill-rule:evenodd; clip-rule:evenodd"
viewBox="0 0 44067.8 13302.5"
 xmlns:xlink="http://www.w3.org/1999/xlink"
 xmlns:xodm="http://www.corel.com/coreldraw/odm/2003">
 <defs>
  <style type="text/css">
   <![CDATA[
    .fil0 {fill:#1B5493;fill-rule:nonzero}
   ]]>
  </style>
 </defs>
 <g id="Layer_x0020_1">
  <metadata id="CorelCorpID_0Corel-Layer"/>
  <path class="fil0" d="M6813.5 0c-3988.8,0 -6813.5,2920 -6813.5,6699 0,3988.8 2786.4,6508 6622.6,6508 4103.3,0 6889.8,-2500.1 6889.8,-6660.7 0,-3874.4 -2729.2,-6546.3 -6698.9,-6546.3zm3645.1 6794.4c0,3091.8 -973.2,5534.8 -3473.4,5534.8 -3110.9,0 -3931.5,-3740.7 -3931.5,-6069.2 0,-3187.3 1259.6,-5382.1 3607.1,-5382.1 2366.5,0 3797.8,2652.9 3797.8,5916.5zm22120 -5871.9c133.5,-152.7 114.4,-575.8 -57.3,-671.2 -534.4,38.2 -1087.8,50.9 -1755.8,50.9 -572.7,0 -1336.1,-12.7 -1946.7,-50.9 -171.9,95.4 -210,499.5 -57.3,671.2l419.8 114.4c248.1,76.3 362.6,133.6 362.6,267.3 0,209.9 -381.7,1297.7 -515.4,1622.2 -916,2325.3 -1813.1,4691.8 -2729.2,6902.6 -114.5,-267.3 -343.5,-820.7 -839.7,-1867.2l-897.1 -1927.6c-133.6,-305.4 -152.7,-419.8 -152.7,-477.1 0,-95.4 248.1,-648.9 419.9,-992.5 248.1,-499.3 725.2,-1377.3 1183.3,-2159.8 667.9,-1145.1 801.6,-1221.5 1450.4,-1355.1l534.4 -114.5c171.7,-127.3 133.6,-588.5 -19,-683.9 -496.2,38.2 -1202.3,50.9 -1946.7,50.9 -629.8,0 -1316.9,-12.7 -1870.4,-50.9 -171.7,95.4 -190.8,537.6 -57.3,671.2l572.6 133.6c305.4,76.3 381.8,133.5 381.8,267.1 0,114.5 -190.9,687.1 -515.4,1412.3l-171.8 381.7c-190.9,419.8 -381.7,798.4 -572.6,1199.1 -171.7,-343.5 -362.6,-760.1 -534.3,-1161l-572.6 -1316.8c-95.4,-210 -171.7,-419.9 -171.7,-572.6 0,-133.5 286.3,-209.9 515.4,-267.2l324.4 -76.3c133.6,-95.4 152.7,-613.9 -76.3,-671.2 -496.2,38.2 -1221.5,50.9 -2194.8,50.9 -839.8,0 -1584.1,-12.7 -2404.8,-50.9 -210,76.4 -248.1,518.5 -57.3,671.2l190.9 19c725.2,76.4 858.9,210 1297.7,1164.2l1832.3 4023.8c76.3,190.9 114.4,400.9 114.4,515.4 0,114.4 -114.4,534.4 -248.1,839.8l-248.1 553.5c-381.7,855.7 -687.1,1428.2 -916.1,1848.1 -229,-458 -419.8,-858.8 -954.2,-2039l-1889.4 -4214.7c-591.7,-1336 -992.5,-2232.9 -992.5,-2366.5 0,-133.5 133.6,-229 477.1,-286.2l343.6 -57.3c190.8,-114.6 114.4,-594.9 -38.2,-671.2 -725.2,38.2 -1469.6,50.9 -2309.3,50.9 -973.4,0 -1774.9,-12.7 -2481.1,-50.9 -210,95.4 -229,480.3 -76.3,671.2l477.1 95.4c629.8,133.6 744.4,229 1259.6,1355l3130 6826.2c648.9,1431.4 1412.3,3149.1 1717.7,3950.6 171.7,95.4 286.3,152.7 496.2,152.7 286.3,0 534.4,-57.3 629.8,-152.7 305.4,-629.8 515.4,-1183.3 801.7,-1794.1l896.9 -1946.7c248.1,-534.3 477.1,-989.2 649,-1313.6 171.7,286.2 419.9,855.5 687,1466.3l801.7 1813.1c228.9,534.4 515.2,1221.5 725.2,1679.6 133.6,95.4 305.4,152.7 515.2,152.7 248.2,0 515.4,-57.3 629.8,-152.7 935.2,-2481.1 3091.9,-7230.1 4027.1,-9459.9 515.4,-1202.3 839.8,-1813.1 1049.6,-2118.5 133.6,-171.7 343.6,-324.5 782.5,-419.8l572.7 -133.6zm6927.9 -922.5c-1984.9,0 -3931.6,572.5 -5286.7,1698.6 -1316.9,1087.8 -2309.3,2729.2 -2309.3,5057.5 0,2366.7 1049.7,3950.7 2423.8,5000.4 1355,1011.5 3263.5,1450.5 5133.9,1450.5 1488.6,0 2843.8,-419.8 3874.4,-706.1 267.2,-439 591.6,-1584 725.2,-2996.4 -114.4,-229 -572.5,-286.3 -725.2,-133.6 -515.4,1297.7 -1584,2958.2 -3893.4,2958.2 -2290.2,0 -4485,-2042.1 -4485,-5840.2 0,-3798 2271.1,-5611.1 4389.6,-5611.1 1851.3,0 3072.7,954.2 3588,2729.2 133.5,171.7 648.9,95.4 725.2,-133.6 -171.7,-1107 -229,-2633.7 -229,-2977.3 -572.5,-38.1 -1984.8,-496.2 -3931.6,-496.2z"/>
 </g>
</svg>
