<?xml version="1.0" encoding="UTF-8"?>
<!DOCTYPE svg PUBLIC "-//W3C//DTD SVG 1.1//EN" "http://www.w3.org/Graphics/SVG/1.1/DTD/svg11.dtd">
<!-- Creator: CorelDRAW (Evaluation Version) -->
<svg xmlns="http://www.w3.org/2000/svg" xml:space="preserve" width="7.22594in" height="1.08338in" version="1.1" style="shape-rendering:geometricPrecision; text-rendering:geometricPrecision; image-rendering:optimizeQuality; fill-rule:evenodd; clip-rule:evenodd"
viewBox="0 0 72203.3 10825.4"
 xmlns:xlink="http://www.w3.org/1999/xlink"
 xmlns:xodm="http://www.corel.com/coreldraw/odm/2003">
 <defs>
  <style type="text/css">
   <![CDATA[
    .fil1 {fill:#96989B;fill-rule:nonzero}
    .fil0 {fill:#373535;fill-rule:nonzero}
   ]]>
  </style>
 </defs>
 <g id="Layer_x0020_1">
  <metadata id="CorelCorpID_0Corel-Layer"/>
  <g id="_435878824">
   <path class="fil0" d="M2089.4 7242c146.5,0 281.6,22 405.5,65.9 123.8,44 230.4,110 319.5,197.7 89.3,87.9 158.5,197.8 207.7,329.6 49.4,131.8 73.9,285.6 73.9,461.4 0,221 -33.9,440.7 -101.9,659.2 -67.9,218.3 -168.4,414.8 -301.5,589.2 -133.1,174.4 -299.6,316.2 -499.4,425.5 -199.7,109.1 -432.8,163.7 -699.1,163.7 -149.2,0 -285,-22 -407.6,-66 -122.4,-43.9 -228.3,-109.8 -317.5,-197.7 -89.1,-87.9 -158.4,-197.7 -207.8,-329.5 -49.3,-131.9 -73.9,-285.6 -73.9,-461.5 0,-218.4 33.3,-437.4 100,-657.1 66.5,-219.8 167.2,-416.8 301.5,-591.3 134.5,-174.4 301.7,-316.3 501.5,-425.5 199.6,-109.2 432.7,-163.7 699.1,-163.7zm-555.4 2556.7c178.5,0 339.7,-43.3 483.4,-129.9 143.8,-86.5 265.7,-199.1 365.6,-337.6 99.8,-138.5 176.5,-294.3 229.7,-467.4 53.3,-173.2 79.9,-346.2 79.9,-519.4 0,-236.9 -51.3,-424.1 -153.9,-561.3 -102.4,-137.1 -265.6,-205.7 -489.4,-205.7 -181,0 -342.8,43.2 -485.3,129.8 -142.4,86.5 -263.7,199 -363.5,337.5 -100,138.5 -176.5,294.4 -229.7,467.4 -53.3,173.1 -79.9,346.3 -79.9,519.3 0,237.1 51.3,424.1 153.9,561.3 102.4,137.2 265.6,205.8 489.3,205.8zm2304.3 275.6l-371.5 0 479.4 -1997.3c122.5,-37.3 255,-67.3 397.5,-89.9 142.5,-22.6 269.6,-34 381.5,-34 119.8,0 223.1,16.7 309.6,50 86.5,33.2 156.5,78.5 209.7,135.8 53.3,57.3 92.6,126.6 117.9,207.8 25.3,81.2 37.9,169.7 37.9,265.6 0,61.3 -5.2,125.9 -15.9,193.7 -10.7,68 -24,136.6 -39.9,205.8l-255.7 1062.6 -371.5 0 235.7 -982.7c18.6,-74.6 36.6,-150.4 53.9,-227.7 17.3,-77.3 25.9,-150.5 25.9,-219.8 0,-106.4 -29.2,-195 -87.9,-265.6 -58.6,-70.6 -167.7,-105.9 -327.6,-105.9 -66.5,0 -131.8,4 -195.7,12 -63.9,8.1 -117.2,18.6 -159.8,31.9l-423.5 1757.8zm2560 -1090.5c154.5,-5.4 295.6,-15.3 423.4,-30 127.8,-14.7 238.4,-39.9 331.6,-75.8 93.2,-36 165.8,-84.6 217.7,-145.9 52,-61.2 77.9,-141.1 77.9,-239.7 0,-23.9 -4.7,-49.3 -14,-75.8 -9.3,-26.6 -25.3,-51.3 -47.9,-73.9 -22.7,-22.6 -54,-41.3 -93.9,-55.9 -39.9,-14.7 -89.3,-22 -147.8,-22 -93.2,0 -180.5,19.9 -261.6,59.9 -81.3,39.9 -153.9,92.6 -217.7,157.8 -63.9,65.1 -118.5,141.1 -163.8,227.7 -45.4,86.5 -79.9,177.7 -103.9,273.7zm379.5 1142.5c-135.9,0 -253,-19.3 -351.6,-58 -98.6,-38.6 -181.2,-91.9 -247.7,-159.8 -66.6,-67.9 -115.9,-147.1 -147.8,-237.6 -31.9,-90.6 -48,-186.5 -48,-287.7 0,-186.5 28,-366.3 83.9,-539.3 55.9,-173.1 135.9,-326.2 239.7,-459.4 103.9,-133.2 230.4,-239 379.5,-317.6 149.1,-78.6 318.3,-117.9 507.4,-117.9 109.2,0 203.1,14 281.6,42 78.6,28 142.6,65.9 191.8,113.8 49.2,48 85.8,103.3 109.8,165.8 24,62.7 35.9,127.3 35.9,193.8 0,125.2 -22.6,231 -67.9,317.5 -45.3,86.7 -105.2,159.2 -179.8,217.7 -74.6,58.7 -161.8,103.9 -261.6,135.9 -99.9,32 -203.7,57.2 -311.6,75.8 -107.8,18.6 -217.1,31.3 -327.6,38 -110.5,6.7 -215,12.6 -313.5,17.9 -2.8,21.4 -4.1,38.7 -4.1,52 0,13.3 0,24 0,32 0,61.3 7.4,119.2 22,173.7 14.6,54.6 42,102.6 81.9,143.8 39.9,41.3 95.2,73.9 165.8,97.9 70.6,24 163,35.9 277.7,35.9 50.6,0 103.1,-4.6 157.7,-14 54.7,-9.3 106.5,-21.3 155.9,-36 49.2,-14.6 93.1,-29.3 131.8,-44 38.6,-14.6 65.9,-28.6 81.9,-42l31.9 315.7c-53.2,29.3 -139.2,60.6 -257.7,93.9 -118.5,33.2 -257.6,49.9 -417.4,49.9zm2340.3 -52l663.1 -2768.4 1617.9 0 -75.9 323.6 -1234.4 0 -203.8 846.9 1094.7 0 -76 315.5 -1090.6 0 -307.6 1282.3 -387.5 0zm3666.5 24c-13.3,-29.3 -26.6,-62 -39.9,-97.9 -13.3,-36 -24,-73.9 -31.9,-113.8 -58.6,53.2 -137.1,106.6 -235.7,159.8 -98.5,53.3 -219.7,79.9 -363.5,79.9 -117.1,0 -217.7,-18.6 -301.6,-55.9 -83.9,-37.3 -152.5,-89.3 -205.8,-155.8 -53.2,-66.6 -92.6,-145.2 -117.8,-235.7 -25.3,-90.6 -38,-190.5 -38,-299.6 0,-178.4 30,-353 89.9,-523.4 59.9,-170.5 149.8,-322.2 269.6,-455.4 119.9,-133.1 270.3,-241 451.4,-323.5 181.1,-82.7 392.8,-123.9 635.2,-123.9 72,0 155.8,8.1 251.7,24 95.9,16.1 178.4,42.6 247.6,79.9l-307.6 1254.4c-13.4,61.2 -24.7,119.8 -34,175.7 -9.3,55.9 -14,114.6 -14,175.8 0,61.3 5.4,123.3 15.9,185.8 10.7,62.5 29.3,129.9 55.9,201.7l-327.6 48zm-595.2 -287.7c111.8,0 207.8,-24 287.6,-71.9 79.9,-48 149.2,-103.9 207.8,-167.8 2.7,-45.3 7.4,-92.6 14,-141.8 6.7,-49.2 15.4,-99.1 25.9,-149.7l239.7 -990.7c-13.3,-5.4 -35.2,-9.3 -65.8,-12 -30.7,-2.6 -58,-4 -81.9,-4 -151.9,0 -289.1,29.3 -411.5,87.9 -122.5,58.5 -227.1,136.4 -313.6,233.6 -86.5,97.2 -153.2,210.5 -199.8,339.7 -46.6,129.1 -69.9,264.2 -69.9,405.5 0,55.8 5.4,112.5 16,169.7 10.7,57.2 29.9,107.8 57.9,151.8 28,43.9 65.3,79.8 111.9,107.8 46.6,28 107.2,42 181.8,42zm3970.1 -1857.6c117.2,0 216.4,17.9 297.7,54 81.2,36 146.5,84.5 195.7,145.8 49.3,61.3 84.6,132.5 105.9,213.8 21.3,81.2 31.9,167 31.9,257.6 0,58.6 -4.6,121.8 -14,189.8 -9.3,67.9 -22,133.8 -38,197.8l-255.6 1062.6 -371.5 0 235.6 -982.7c13.4,-61.2 28.6,-129.9 45.9,-205.7 17.4,-76 26,-151.1 26,-225.7 0,-50.6 -6.1,-99.8 -18,-147.8 -12,-48 -31.9,-89.3 -59.9,-123.8 -28,-34.7 -67.3,-62.7 -117.9,-83.9 -50.6,-21.3 -113.1,-32 -187.7,-32 -85.2,0 -167.8,16.6 -247.6,49.9 -79.9,33.3 -146.5,67.3 -199.8,101.9 5.4,37.3 10,73.9 14,109.8 4,36 6,71.3 6,105.9 0,61.3 -4.6,123.3 -14,185.8 -9.3,62.5 -20.7,124.5 -34,185.8l-255.6 1062.6 -371.6 0 235.7 -982.7c13.3,-61.2 28,-130.4 44,-207.8 15.9,-77.2 23.9,-154.4 23.9,-231.6 0,-50.6 -5.2,-99.3 -15.9,-145.9 -10.7,-46.6 -28.6,-87.2 -53.9,-121.8 -25.4,-34.7 -59.4,-62 -101.9,-81.9 -42.6,-20 -97.2,-30 -163.8,-30 -66.5,0 -131.1,4 -193.7,12 -62.5,8.1 -115.2,18.6 -157.7,31.9l-423.6 1757.8 -371.5 0 479.4 -1997.3c119.9,-37.3 251.1,-67.3 393.6,-89.9 142.5,-22.6 269.6,-34 381.5,-34 111.9,0 206.4,19.3 283.6,58 77.3,38.5 138.5,89.8 183.8,153.7 26.7,-18.6 63.3,-39.9 110,-63.9 46.5,-23.9 99.8,-46.6 159.8,-67.9 59.9,-21.2 125.2,-39.9 195.7,-55.9 70.6,-15.9 143.2,-24 217.7,-24zm1493.3 2121.3l-371.5 0 499.4 -2077.3 371.5 0 -499.4 2077.3zm431.5 -2452.9c-61.3,0 -112.6,-18.6 -153.8,-55.9 -41.3,-37.2 -61.9,-89.1 -61.9,-155.8 0,-85.2 26.6,-152.5 79.8,-201.7 53.3,-49.3 113.3,-73.9 179.8,-73.9 61.3,0 113.3,19.3 155.8,58 42.6,38.6 64,92.4 64,161.7 0,79.9 -28,144.5 -83.9,193.7 -55.9,49.4 -115.9,73.9 -179.8,73.9zm966.1 1538.1c-13.4,58.6 -26.7,115.8 -40,171.7 -13.3,55.9 -19.9,109.2 -19.9,159.9 0,90.5 22,162.4 65.8,215.7 44,53.2 125.9,86.5 245.7,99.8l-83.9 303.6c-109.2,-2.6 -201.7,-19.4 -277.7,-49.9 -75.8,-30.6 -137.1,-71.3 -183.8,-121.9 -46.6,-50.6 -80.5,-110.5 -101.9,-179.7 -21.2,-69.2 -31.9,-145.1 -31.9,-227.7 0,-61.3 5.4,-125.2 16.1,-191.7 10.7,-66.6 25.2,-135.9 43.9,-207.8l503.4 -2093.3 387.5 -63.9 -523.3 2185.2zm1537.2 579.2c101.2,-159.8 193.1,-325.7 275.7,-497.4 82.6,-171.8 155.1,-336.2 217.6,-493.4 62.7,-157.1 115.2,-301.7 157.8,-433.4 42.6,-131.8 73.3,-237.6 91.9,-317.6l387.5 0c-29.3,101.2 -70.6,227.1 -123.8,377.5 -53.3,150.4 -117.9,312.9 -193.7,487.3 -76,174.4 -161.1,353 -255.7,535.3 -94.5,182.4 -197.8,357.5 -309.5,525.3 -85.3,125.2 -170.5,243 -255.7,353.5 -85.2,110.5 -176.5,206.4 -273.7,287.7 -97.1,81.2 -204.3,145.1 -321.6,191.7 -117.1,46.6 -249,69.9 -395.4,69.9 -74.6,0 -143.9,-9.3 -207.8,-28 -63.9,-18.6 -110.5,-38.6 -139.7,-59.9l127.8 -303.6c26.6,21.2 62.5,39.2 107.8,53.9 45.4,14.7 95.9,22 151.8,22 154.5,0 285.6,-37.2 393.6,-111.8 107.9,-74.6 209.8,-173.2 305.6,-295.6 -98.6,-322.2 -179.1,-661.8 -241.7,-1018.7 -62.5,-356.9 -100.5,-719.1 -113.8,-1086.6l379.5 0c2.6,119.9 9.3,250.9 19.9,393.4 10.7,142.6 26,290.3 45.9,443.4 20,153.2 44,307 72,461.4 28,154.5 60.5,302.2 97.8,443.5zm2915.6 -2432.9l387.4 0 -663 2768.4 -387.5 0 663.1 -2768.4zm3302.9 -63.9c146.5,0 281.6,22 405.5,65.9 123.8,44 230.4,110 319.5,197.7 89.3,87.9 158.5,197.8 207.7,329.6 49.4,131.8 73.9,285.6 73.9,461.4 0,221 -33.9,440.7 -101.9,659.2 -67.9,218.3 -168.4,414.8 -301.5,589.2 -133.1,174.4 -299.6,316.2 -499.4,425.5 -199.7,109.1 -432.8,163.7 -699.1,163.7 -149.2,0 -285,-22 -407.6,-66 -122.4,-43.9 -228.3,-109.8 -317.5,-197.7 -89.1,-87.9 -158.4,-197.7 -207.8,-329.5 -49.3,-131.9 -73.9,-285.6 -73.9,-461.5 0,-218.4 33.3,-437.4 100,-657.1 66.5,-219.8 167.2,-416.8 301.5,-591.3 134.5,-174.4 301.7,-316.3 501.5,-425.5 199.6,-109.2 432.7,-163.7 699.1,-163.7zm-555.4 2556.7c178.5,0 339.7,-43.3 483.4,-129.9 143.8,-86.5 265.7,-199.1 365.6,-337.6 99.8,-138.5 176.5,-294.3 229.7,-467.4 53.3,-173.2 79.9,-346.2 79.9,-519.4 0,-236.9 -51.3,-424.1 -153.9,-561.3 -102.4,-137.1 -265.6,-205.7 -489.4,-205.7 -181,0 -342.8,43.2 -485.3,129.8 -142.4,86.5 -263.7,199 -363.5,337.5 -100,138.5 -176.5,294.4 -229.7,467.4 -53.3,173.1 -79.9,346.3 -79.9,519.3 0,237.1 51.3,424.1 153.9,561.3 102.4,137.2 265.6,205.8 489.3,205.8zm2304.3 275.6l-371.5 0 479.4 -1997.3c122.5,-37.3 255,-67.3 397.5,-89.9 142.5,-22.6 269.6,-34 381.5,-34 119.8,0 223.1,16.7 309.6,50 86.5,33.2 156.5,78.5 209.7,135.8 53.3,57.3 92.6,126.6 117.9,207.8 25.3,81.2 37.9,169.7 37.9,265.6 0,61.3 -5.2,125.9 -15.9,193.7 -10.7,68 -24,136.6 -39.9,205.8l-255.7 1062.6 -371.5 0 235.7 -982.7c18.6,-74.6 36.6,-150.4 53.9,-227.7 17.3,-77.3 25.9,-150.5 25.9,-219.8 0,-106.4 -29.2,-195 -87.9,-265.6 -58.6,-70.6 -167.7,-105.9 -327.6,-105.9 -66.5,0 -131.8,4 -195.7,12 -63.9,8.1 -117.2,18.6 -159.8,31.9l-423.5 1757.8zm2560 -1090.5c154.5,-5.4 295.6,-15.3 423.4,-30 127.8,-14.7 238.4,-39.9 331.6,-75.8 93.2,-36 165.8,-84.6 217.7,-145.9 52,-61.2 77.9,-141.1 77.9,-239.7 0,-23.9 -4.7,-49.3 -14,-75.8 -9.3,-26.6 -25.3,-51.3 -47.9,-73.9 -22.7,-22.6 -54,-41.3 -93.9,-55.9 -39.9,-14.7 -89.3,-22 -147.8,-22 -93.2,0 -180.5,19.9 -261.6,59.9 -81.3,39.9 -153.9,92.6 -217.7,157.8 -63.9,65.1 -118.5,141.1 -163.8,227.7 -45.4,86.5 -79.9,177.7 -103.9,273.7zm379.5 1142.5c-135.9,0 -253,-19.3 -351.6,-58 -98.6,-38.6 -181.2,-91.9 -247.7,-159.8 -66.6,-67.9 -115.9,-147.1 -147.8,-237.6 -31.9,-90.6 -48,-186.5 -48,-287.7 0,-186.5 28,-366.3 83.9,-539.3 55.9,-173.1 135.9,-326.2 239.7,-459.4 103.9,-133.2 230.4,-239 379.5,-317.6 149.1,-78.6 318.3,-117.9 507.4,-117.9 109.2,0 203.1,14 281.6,42 78.6,28 142.6,65.9 191.8,113.8 49.2,48 85.8,103.3 109.8,165.8 24,62.7 35.9,127.3 35.9,193.8 0,125.2 -22.6,231 -67.9,317.5 -45.3,86.7 -105.2,159.2 -179.8,217.7 -74.6,58.7 -161.8,103.9 -261.6,135.9 -99.9,32 -203.7,57.2 -311.6,75.8 -107.8,18.6 -217.1,31.3 -327.6,38 -110.5,6.7 -215,12.6 -313.5,17.9 -2.8,21.4 -4.1,38.7 -4.1,52 0,13.3 0,24 0,32 0,61.3 7.4,119.2 22,173.7 14.6,54.6 42,102.6 81.9,143.8 39.9,41.3 95.2,73.9 165.8,97.9 70.6,24 163,35.9 277.7,35.9 50.6,0 103.1,-4.6 157.7,-14 54.7,-9.3 106.5,-21.3 155.9,-36 49.2,-14.6 93.1,-29.3 131.8,-44 38.6,-14.6 65.9,-28.6 81.9,-42l31.9 315.7c-53.2,29.3 -139.2,60.6 -257.7,93.9 -118.5,33.2 -257.6,49.9 -417.4,49.9zm3339 -511.3c111.9,-159.9 225.7,-331.6 341.5,-515.3 115.9,-183.9 231.7,-374.9 347.5,-573.3 115.9,-198.4 229.1,-400.1 339.7,-605.3 110.5,-205 216.4,-410.1 317.6,-615.2l427.4 0c-146.5,277 -289.6,540 -429.5,789 -139.8,249 -278.2,487.3 -415.5,715 -137.1,227.8 -274.2,446.2 -411.4,655.2 -137.1,209.1 -277.7,412.2 -421.5,609.2l-379.4 0c-40,-199.8 -77.3,-401.5 -111.9,-605.2 -34.7,-203.7 -66.6,-417.4 -95.9,-641.1 -29.3,-223.8 -58,-460.2 -86,-709.2 -28,-249 -55.3,-520 -81.9,-812.9l399.5 0c42.6,474 83.2,898.9 121.9,1274.3 38.7,375.6 84.6,720.4 137.8,1034.7zm2060.6 459.4l-371.5 0 499.4 -2077.3 371.5 0 -499.4 2077.3zm431.5 -2452.9c-61.3,0 -112.6,-18.6 -153.9,-55.9 -41.3,-37.2 -61.8,-89.1 -61.8,-155.8 0,-85.2 26.6,-152.5 79.8,-201.7 53.3,-49.3 113.3,-73.9 179.8,-73.9 61.3,0 113.3,19.3 155.8,58 42.6,38.6 64,92.4 64,161.7 0,79.9 -28,144.5 -83.9,193.7 -55.9,49.4 -115.9,73.9 -179.8,73.9zm930 2193.2c55.9,0 112.6,-5.2 169.9,-15.9 57.2,-10.7 107.8,-28 151.8,-52 43.9,-24 79.8,-56.6 107.8,-97.9 28,-41.3 42,-92.6 42,-153.7 0,-40 -6.6,-75.3 -20,-105.9 -13.3,-30.7 -34.5,-59.2 -63.9,-86 -29.2,-26.6 -65.9,-52.6 -109.8,-77.9 -43.9,-25.3 -96.5,-53.9 -157.8,-85.8 -61.2,-29.3 -117.1,-58.6 -167.7,-87.9 -50.6,-29.3 -95.3,-63.9 -133.8,-103.9 -38.7,-39.9 -68.6,-87.2 -90,-141.8 -21.2,-54.6 -31.9,-120.5 -31.9,-197.7 0,-199.7 72,-360.2 215.7,-481.3 143.8,-121.2 353,-181.8 627.2,-181.8 127.9,0 240.4,12.6 337.6,38 97.2,25.2 164.4,48.5 201.7,69.9l-139.8 303.6c-37.3,-21.4 -97.2,-44 -179.7,-67.9 -82.6,-24 -174.4,-36 -275.8,-36 -50.6,0 -101.2,5.4 -151.8,16 -50.6,10.7 -96.5,28.7 -137.8,53.9 -41.3,25.4 -74.5,58.6 -99.8,100 -25.3,41.3 -38,91.2 -38,149.8 0,71.8 28,131.2 84,177.7 55.9,46.6 139.9,95.3 251.6,145.9 69.2,31.9 131.2,64.6 185.8,97.9 54.6,33.2 101.2,70.5 139.9,111.8 38.6,41.3 67.9,90 87.9,145.9 19.9,55.8 29.9,122.5 29.9,199.6 0,111.9 -21.2,210.5 -63.9,295.6 -42.6,85.3 -101.9,155.8 -177.7,211.7 -75.9,55.9 -165.8,97.9 -269.7,125.9 -103.8,28 -217,41.9 -339.5,41.9 -90.5,0 -172.5,-6 -245.7,-17.9 -73.3,-12.1 -137.1,-26 -191.7,-42 -54.6,-16 -99.9,-32.6 -135.9,-49.9 -35.9,-17.4 -63.2,-31.4 -81.9,-41.9l143.9 -303.6c18.6,10.6 44.6,23.9 77.9,39.9 33.3,15.9 73.2,31.9 119.8,47.9 46.6,16 97.9,29.3 153.9,40 55.8,10.7 114.5,15.9 175.7,15.9zm1717.1 259.7l-371.5 0 499.4 -2077.3 371.5 0 -499.4 2077.3zm431.5 -2452.9c-61.3,0 -112.6,-18.6 -153.9,-55.9 -41.3,-37.2 -61.8,-89.1 -61.8,-155.8 0,-85.2 26.6,-152.5 79.8,-201.7 53.3,-49.3 113.3,-73.9 179.8,-73.9 61.3,0 113.3,19.3 155.8,58 42.6,38.6 64,92.4 64,161.7 0,79.9 -28,144.5 -83.9,193.7 -55.9,49.4 -115.9,73.9 -179.8,73.9zm1205.8 2504.8c-218.5,0 -389.6,-64.6 -513.4,-193.7 -123.8,-129.2 -185.8,-307 -185.8,-533.3 0,-154.5 22,-317 65.9,-487.5 43.9,-170.4 113.8,-327.6 209.7,-471.3 95.9,-143.9 219.8,-262.4 371.6,-355.6 151.8,-93.2 335.5,-139.9 551.2,-139.9 218.5,0 389.6,64.6 513.4,193.7 123.8,129.2 185.7,306.9 185.7,533.3 0,154.5 -22,317 -65.8,487.5 -44,170.5 -113.9,327.5 -209.8,471.3 -95.9,143.8 -219.7,262.3 -371.5,355.6 -151.8,93.2 -335.5,139.9 -551.2,139.9zm63.9 -315.6c119.8,0 226.9,-34.6 321.6,-103.8 94.5,-69.3 174.4,-157.8 239.7,-265.7 65.3,-107.8 115.2,-226.9 149.8,-357.5 34.7,-130.6 51.9,-257 51.9,-379.6 0,-135.8 -29.3,-243.7 -87.9,-323.5 -58.5,-79.9 -159.8,-119.8 -303.6,-119.8 -119.9,0 -227.1,34.6 -321.6,103.8 -94.6,69.2 -174.4,157.8 -239.7,265.6 -65.3,107.9 -115.2,227.1 -149.9,357.6 -34.5,130.5 -51.8,257 -51.8,379.4 0,135.9 29.2,243.8 87.9,323.6 58.5,79.9 159.8,119.9 303.6,119.9zm1948.7 263.7l-371.5 0 479.4 -1997.3c122.5,-37.3 255,-67.3 397.5,-89.9 142.5,-22.6 269.6,-34 381.5,-34 119.9,0 223.1,16.7 309.6,50 86.5,33.2 156.5,78.5 209.7,135.8 53.3,57.3 92.5,126.6 117.9,207.8 25.3,81.2 37.8,169.7 37.8,265.6 0,61.3 -5.2,125.9 -15.9,193.7 -10.7,68 -24,136.6 -39.9,205.8l-255.7 1062.6 -371.5 0 235.7 -982.7c18.6,-74.6 36.6,-150.4 53.9,-227.7 17.3,-77.3 25.9,-150.5 25.9,-219.8 0,-106.4 -29.2,-195 -87.9,-265.6 -58.5,-70.6 -167.7,-105.9 -327.6,-105.9 -66.5,0 -131.8,4 -195.7,12 -63.9,8.1 -117.2,18.6 -159.8,31.9l-423.6 1757.8zm3654.6 -2768.4l387.5 0 -663.1 2768.4 -387.5 0 663.1 -2768.4zm3303 -63.9c146.5,0 281.7,22 405.5,65.9 123.8,44 230.3,110 319.5,197.7 89.2,87.9 158.5,197.8 207.7,329.6 49.4,131.8 73.9,285.6 73.9,461.4 0,221 -33.9,440.7 -101.9,659.2 -67.9,218.3 -168.4,414.8 -301.5,589.2 -133.2,174.4 -299.6,316.2 -499.4,425.5 -199.6,109.1 -432.7,163.7 -699.1,163.7 -149.2,0 -284.9,-22 -407.5,-66 -122.5,-43.9 -228.3,-109.8 -317.6,-197.7 -89.1,-87.9 -158.4,-197.7 -207.7,-329.5 -49.3,-131.9 -73.9,-285.6 -73.9,-461.5 0,-218.4 33.3,-437.4 100,-657.1 66.5,-219.8 167.1,-416.8 301.5,-591.3 134.5,-174.4 301.7,-316.3 501.4,-425.5 199.7,-109.2 432.8,-163.7 699.1,-163.7zm-555.3 2556.7c178.5,0 339.6,-43.3 483.4,-129.9 143.8,-86.5 265.7,-199.1 365.5,-337.6 99.8,-138.5 176.5,-294.3 229.7,-467.4 53.3,-173.2 79.9,-346.2 79.9,-519.4 0,-236.9 -51.3,-424.1 -153.9,-561.3 -102.4,-137.1 -265.6,-205.7 -489.4,-205.7 -181,0 -342.8,43.2 -485.3,129.8 -142.5,86.5 -263.7,199 -363.5,337.5 -99.9,138.5 -176.4,294.4 -229.7,467.4 -53.3,173.1 -79.9,346.3 -79.9,519.3 0,237.1 51.3,424.1 153.9,561.3 102.4,137.2 265.6,205.8 489.3,205.8zm2304.2 275.6l-371.4 0 479.4 -1997.3c122.5,-37.3 255,-67.3 397.5,-89.9 142.5,-22.6 269.6,-34 381.5,-34 119.9,0 223.1,16.7 309.6,50 86.5,33.2 156.5,78.5 209.7,135.8 53.3,57.3 92.5,126.6 117.9,207.8 25.3,81.2 37.9,169.7 37.9,265.6 0,61.3 -5.2,125.9 -15.9,193.7 -10.7,68 -24,136.6 -39.9,205.8l-255.7 1062.6 -371.5 0 235.7 -982.7c18.6,-74.6 36.6,-150.4 53.9,-227.7 17.3,-77.3 25.9,-150.5 25.9,-219.8 0,-106.4 -29.2,-195 -87.9,-265.6 -58.6,-70.6 -167.7,-105.9 -327.6,-105.9 -66.5,0 -131.8,4 -195.7,12 -63.9,8.1 -117.2,18.6 -159.8,31.9l-423.6 1757.8zm2560 -1090.5c154.5,-5.4 295.6,-15.3 423.5,-30 127.8,-14.7 238.3,-39.9 331.6,-75.8 93.3,-36 165.8,-84.6 217.8,-145.9 51.9,-61.2 77.9,-141.1 77.9,-239.7 0,-23.9 -4.6,-49.3 -14,-75.8 -9.3,-26.6 -25.3,-51.3 -47.9,-73.9 -22.7,-22.6 -54,-41.3 -93.9,-55.9 -39.9,-14.7 -89.3,-22 -147.8,-22 -93.2,0 -180.5,19.9 -261.6,59.9 -81.3,39.9 -153.8,92.6 -217.7,157.8 -63.9,65.1 -118.5,141.1 -163.7,227.7 -45.4,86.5 -79.9,177.7 -103.9,273.7zm379.5 1142.5c-135.9,0 -253,-19.3 -351.6,-58 -98.6,-38.6 -181.1,-91.9 -247.6,-159.8 -66.6,-67.9 -115.9,-147.1 -147.8,-237.6 -32,-90.6 -48,-186.5 -48,-287.7 0,-186.5 28,-366.3 83.9,-539.3 55.9,-173.1 135.9,-326.2 239.7,-459.4 103.9,-133.2 230.4,-239 379.5,-317.6 149.1,-78.6 318.3,-117.9 507.4,-117.9 109.2,0 203.1,14 281.5,42 78.6,28 142.6,65.9 191.9,113.8 49.2,48 85.8,103.3 109.8,165.8 24,62.7 35.9,127.3 35.9,193.8 0,125.2 -22.6,231 -67.9,317.5 -45.2,86.7 -105.2,159.2 -179.7,217.7 -74.6,58.7 -161.8,103.9 -261.6,135.9 -100,32 -203.8,57.2 -311.7,75.8 -107.8,18.6 -217,31.3 -327.6,38 -110.5,6.7 -215,12.6 -313.5,17.9 -2.8,21.4 -4.1,38.7 -4.1,52 0,13.3 0,24 0,32 0,61.3 7.4,119.2 22.1,173.7 14.6,54.6 42,102.6 81.9,143.8 39.9,41.3 95.2,73.9 165.8,97.9 70.6,24 163.1,35.9 277.7,35.9 50.6,0 103.1,-4.6 157.7,-14 54.7,-9.3 106.5,-21.3 155.9,-36 49.3,-14.6 93.2,-29.3 131.8,-44 38.7,-14.6 66,-28.6 81.9,-42l32 315.7c-53.2,29.3 -139.2,60.6 -257.7,93.9 -118.5,33.2 -257.7,49.9 -417.4,49.9z"/>
   <path class="fil0" d="M60413.3 7901.2c-42.6,58.5 -95.9,134.4 -159.8,227.6 -63.9,93.2 -133.2,195.8 -207.8,307.6 -74.6,111.9 -151.8,228.4 -231.7,349.6 -79.8,121.1 -157.1,238.4 -231.7,351.5 -74.5,113.2 -143.7,218.4 -207.6,315.6 -64,97.2 -115.9,176.5 -155.9,237.6l-311.5 0c-10.7,-63.9 -24.7,-144.4 -42,-241.6 -17.3,-97.2 -36.6,-202.4 -57.9,-315.7 -21.4,-113.1 -43.3,-230.3 -66,-351.6 -22.6,-121.1 -45.2,-237.6 -67.9,-349.5 -22.6,-111.8 -43.3,-213.7 -62,-305.5 -18.6,-91.9 -34.6,-167.2 -47.9,-225.7 -111.9,343.5 -221,697.7 -327.6,1062.6 -106.6,364.9 -210.5,735 -311.7,1110.6l-383.4 0c63.9,-239.7 131.1,-481.4 201.7,-725.1 70.5,-243.7 142.5,-483.4 215.7,-719.1 73.3,-235.6 146.5,-465.4 219.7,-689.1 73.3,-223.6 144.5,-435.5 213.8,-635.2l379.5 0c32.1,117.1 65.9,255.6 101.8,415.5 36.1,159.8 72,326.9 107.9,501.3 36,174.4 69.3,348.2 99.8,521.3 30.7,173.1 56.6,330.2 77.9,471.3 95.9,-143.7 201.8,-302.2 317.6,-475.3 115.9,-173.2 232.4,-346.9 349.6,-521.4 117.1,-174.4 230.9,-340.9 341.4,-499.4 110.5,-158.5 209.8,-296.3 297.7,-413.5l371.4 0c-45.2,450.1 -105.9,907.5 -181.7,1372.2 -76,464.7 -159.2,930.1 -249.7,1396.2l-387.5 0c79.9,-383.5 153.1,-755.7 219.7,-1116.6 66.6,-360.8 125.2,-713.1 175.8,-1056.5zm1149.8 2173.1l-371.5 0 499.4 -2077.3 371.5 0 -499.4 2077.3zm431.5 -2452.9c-61.3,0 -112.6,-18.6 -153.9,-55.9 -41.3,-37.2 -61.8,-89.1 -61.8,-155.8 0,-85.2 26.6,-152.5 79.8,-201.7 53.3,-49.3 113.3,-73.9 179.8,-73.9 61.3,0 113.3,19.3 155.8,58 42.6,38.6 64,92.4 64,161.7 0,79.9 -28,144.5 -83.9,193.7 -55.9,49.4 -115.9,73.9 -179.8,73.9zm930 2193.2c56,0 112.6,-5.2 169.9,-15.9 57.2,-10.7 107.8,-28 151.8,-52 43.9,-24 79.8,-56.6 107.8,-97.9 28,-41.3 42,-92.6 42,-153.7 0,-40 -6.6,-75.3 -20,-105.9 -13.3,-30.7 -34.5,-59.2 -63.9,-86 -29.2,-26.6 -65.9,-52.6 -109.8,-77.9 -43.9,-25.3 -96.5,-53.9 -157.8,-85.8 -61.2,-29.3 -117.1,-58.6 -167.7,-87.9 -50.6,-29.3 -95.3,-63.9 -133.8,-103.9 -38.7,-39.9 -68.6,-87.2 -90,-141.8 -21.2,-54.6 -31.9,-120.5 -31.9,-197.7 0,-199.7 72,-360.2 215.7,-481.3 143.9,-121.2 353,-181.8 627.2,-181.8 127.9,0 240.4,12.6 337.6,38 97.2,25.2 164.4,48.5 201.7,69.9l-139.8 303.6c-37.3,-21.4 -97.2,-44 -179.7,-67.9 -82.6,-24 -174.4,-36 -275.8,-36 -50.6,0 -101.2,5.4 -151.8,16 -50.6,10.7 -96.5,28.7 -137.8,53.9 -41.3,25.4 -74.5,58.6 -99.8,100 -25.3,41.3 -38,91.2 -38,149.8 0,71.8 28,131.2 83.9,177.7 55.9,46.6 139.9,95.3 251.6,145.9 69.2,31.9 131.2,64.6 185.8,97.9 54.6,33.2 101.2,70.5 139.9,111.8 38.6,41.3 67.9,90 87.9,145.9 19.9,55.8 29.9,122.5 29.9,199.6 0,111.9 -21.3,210.5 -63.9,295.6 -42.6,85.3 -101.9,155.8 -177.7,211.7 -75.9,55.9 -165.8,97.9 -269.7,125.9 -103.8,28 -217.1,41.9 -339.5,41.9 -90.5,0 -172.5,-6 -245.7,-17.9 -73.3,-12.1 -137.1,-26 -191.7,-42 -54.6,-16 -100,-32.6 -135.9,-49.9 -36,-17.4 -63.3,-31.4 -81.9,-41.9l143.9 -303.6c18.6,10.6 44.6,23.9 77.9,39.9 33.3,15.9 73.2,31.9 119.8,47.9 46.6,16 97.9,29.3 153.9,40 55.8,10.7 114.5,15.9 175.7,15.9zm1864.9 0c55.9,0 112.6,-5.2 169.9,-15.9 57.2,-10.7 107.8,-28 151.8,-52 43.9,-24 79.9,-56.6 107.8,-97.9 28,-41.3 41.9,-92.6 41.9,-153.7 0,-40 -6.6,-75.3 -20,-105.9 -13.3,-30.7 -34.5,-59.2 -63.9,-86 -29.2,-26.6 -65.9,-52.6 -109.8,-77.9 -43.9,-25.3 -96.5,-53.9 -157.8,-85.8 -61.2,-29.3 -117.1,-58.6 -167.7,-87.9 -50.6,-29.3 -95.3,-63.9 -133.8,-103.9 -38.7,-39.9 -68.6,-87.2 -90,-141.8 -21.2,-54.6 -31.9,-120.5 -31.9,-197.7 0,-199.7 72,-360.2 215.7,-481.3 143.9,-121.2 353,-181.8 627.2,-181.8 127.9,0 240.4,12.6 337.6,38 97.2,25.2 164.4,48.5 201.7,69.9l-139.8 303.6c-37.3,-21.4 -97.2,-44 -179.7,-67.9 -82.6,-24 -174.4,-36 -275.7,-36 -50.6,0 -101.2,5.4 -151.8,16 -50.6,10.7 -96.5,28.7 -137.8,53.9 -41.3,25.4 -74.5,58.6 -99.8,100 -25.3,41.3 -38,91.2 -38,149.8 0,71.8 28,131.2 83.9,177.7 55.9,46.6 139.9,95.3 251.6,145.9 69.2,31.9 131.2,64.6 185.8,97.9 54.6,33.2 101.2,70.5 139.9,111.8 38.6,41.3 67.9,90 87.9,145.9 19.9,55.8 29.9,122.5 29.9,199.6 0,111.9 -21.3,210.5 -63.9,295.6 -42.6,85.3 -101.9,155.8 -177.7,211.7 -76,55.9 -165.8,97.9 -269.7,125.9 -103.8,28 -217.1,41.9 -339.5,41.9 -90.5,0 -172.5,-6 -245.7,-17.9 -73.3,-12.1 -137.1,-26 -191.7,-42 -54.6,-16 -100,-32.6 -135.9,-49.9 -36,-17.4 -63.2,-31.4 -81.9,-41.9l143.8 -303.6c18.6,10.6 44.6,23.9 77.9,39.9 33.3,15.9 73.2,31.9 119.8,47.9 46.6,16 97.9,29.3 153.9,40 55.8,10.7 114.5,15.9 175.7,15.9zm1717.1 259.7l-371.5 0 499.4 -2077.3 371.5 0 -499.4 2077.3zm431.5 -2452.9c-61.3,0 -112.6,-18.6 -153.9,-55.9 -41.3,-37.2 -61.8,-89.1 -61.8,-155.8 0,-85.2 26.6,-152.5 79.8,-201.7 53.3,-49.3 113.3,-73.9 179.8,-73.9 61.3,0 113.3,19.3 155.8,58 42.6,38.6 64,92.4 64,161.7 0,79.9 -28,144.5 -83.9,193.7 -55.9,49.4 -115.9,73.9 -179.8,73.9zm1205.8 2504.8c-218.5,0 -389.6,-64.6 -513.4,-193.7 -123.8,-129.2 -185.8,-307 -185.8,-533.3 0,-154.5 22.1,-317 65.9,-487.5 43.9,-170.4 113.8,-327.6 209.7,-471.3 96,-143.9 219.8,-262.4 371.6,-355.6 151.8,-93.2 335.5,-139.9 551.2,-139.9 218.5,0 389.6,64.6 513.4,193.7 123.8,129.2 185.7,306.9 185.7,533.3 0,154.5 -21.9,317 -65.8,487.5 -44,170.5 -113.9,327.5 -209.8,471.3 -95.8,143.8 -219.7,262.3 -371.5,355.6 -151.8,93.2 -335.5,139.9 -551.2,139.9zm63.9 -315.6c119.9,0 226.9,-34.6 321.6,-103.8 94.5,-69.3 174.4,-157.8 239.7,-265.7 65.3,-107.8 115.2,-226.9 149.8,-357.5 34.7,-130.6 52,-257 52,-379.6 0,-135.8 -29.3,-243.7 -87.9,-323.5 -58.5,-79.9 -159.8,-119.8 -303.6,-119.8 -119.8,0 -227.1,34.6 -321.6,103.8 -94.6,69.2 -174.4,157.8 -239.7,265.6 -65.3,107.9 -115.2,227.1 -149.8,357.6 -34.6,130.5 -51.8,257 -51.8,379.4 0,135.9 29.2,243.8 87.9,323.6 58.5,79.9 159.8,119.9 303.6,119.9zm1948.7 263.7l-371.4 0 479.4 -1997.3c122.5,-37.3 255.1,-67.3 397.5,-89.9 142.5,-22.6 269.6,-34 381.5,-34 119.9,0 223.1,16.7 309.6,50 86.5,33.2 156.5,78.5 209.7,135.8 53.3,57.3 92.5,126.6 117.9,207.8 25.3,81.2 37.9,169.7 37.9,265.6 0,61.3 -5.2,125.9 -15.9,193.7 -10.7,68 -24,136.6 -39.9,205.8l-255.7 1062.6 -371.5 0 235.7 -982.7c18.6,-74.6 36.6,-150.4 53.9,-227.7 17.3,-77.3 25.9,-150.5 25.9,-219.8 0,-106.4 -29.2,-195 -87.9,-265.6 -58.6,-70.6 -167.7,-105.9 -327.6,-105.9 -66.5,0 -131.8,4 -195.7,12 -63.9,8.1 -117.2,18.6 -159.8,31.9l-423.6 1757.8z"/>
  </g>
  <path class="fil0" d="M1159.6 2065.9c0,194.1 23.8,369.1 71.3,525.1 47.6,156 116,290.1 205.5,402.4 89.4,112.2 198.8,198.7 328.2,259.6 129.4,60.9 277.8,91.3 445.2,91.3 163.6,0 311,-30.4 442.3,-91.3 131.2,-60.9 241.6,-147.4 331,-259.6 89.4,-112.4 157.9,-246.4 205.5,-402.4 47.5,-156 71.3,-331 71.3,-525.1 0,-194 -23.8,-370 -71.3,-527.8 -47.5,-157.9 -116.1,-293 -205.5,-405.2 -89.4,-112.2 -199.8,-198.8 -331,-259.7 -131.3,-60.8 -278.7,-91.3 -442.3,-91.3 -167.4,0 -315.8,31.4 -445.2,94.1 -129.4,62.8 -238.8,150.4 -328.2,262.6 -89.5,112.2 -157.9,247.3 -205.5,405.3 -47.5,157.8 -71.3,331.9 -71.3,522.1zm3019 0c0,338.6 -50.4,636.4 -151.2,893.2 -100.8,256.9 -238.8,471.9 -413.8,644.9 -175,173.2 -383.3,303.5 -624.9,390.9 -241.6,87.6 -501.2,131.4 -779,131.4 -270.2,0 -525.1,-43.8 -764.8,-131.4 -239.7,-87.4 -448.9,-217.7 -627.8,-390.9 -178.8,-173.1 -319.6,-388 -422.3,-644.9 -102.8,-256.7 -154.1,-554.5 -154.1,-893.2 0,-338.6 53.2,-636.3 159.8,-893.2 106.5,-256.7 250.2,-472.7 430.8,-647.6 180.8,-175.1 390,-306.3 627.9,-393.9 237.8,-87.4 487.9,-131.2 750.5,-131.2 270.1,0 525.1,43.8 764.8,131.2 239.7,87.6 448.9,218.8 627.8,393.9 178.8,175 319.5,390.9 422.3,647.6 102.7,256.9 154.1,554.6 154.1,893.2zm3395.9 1980.4c-255,-452.8 -530.8,-899.9 -827.6,-1341.2 -296.7,-441.4 -612.5,-858 -947.4,-1249.9l0 2591 -879 0 0 -3955 724.9 0c125.5,125.5 264.4,279.6 416.6,462.2 152.1,182.7 307.2,377.7 465,585 157.9,207.4 314.9,422.3 470.9,645 156,222.5 302.5,436.6 439.5,642l0 -2334.2 884.6 0 0 3955 -747.6 0zm1660.7 0l0 -3955 2671 0 0 747.6 -1780.7 0 0 776.2 1580.9 0 0 730.6 -1580.9 0 0 953.1 1912 0 0 747.6 -2802.3 0zm7485.7 -3532.7c45.7,156 96.1,332 151.2,527.9 55.2,195.9 114.2,398.5 176.9,607.8 62.8,209.3 125.5,418.5 190.2,627.8 64.7,209.3 127.5,403.3 188.4,582.1 49.5,-194 100.7,-405.2 152.2,-633.4 51.4,-228.3 99.8,-464.2 145.5,-707.7 46.6,-243.6 91.3,-486.1 135.1,-727.7 43.8,-241.5 84.6,-474.6 123.6,-699.1l924.6 0c-134.1,662 -288.2,1333.5 -462.2,2014.7 -174.1,681 -362.4,1327.8 -565,1940.4l-814.2 0c-133.2,-365.2 -262.6,-748.6 -388.1,-1150 -124.6,-401.4 -248.2,-803.7 -370,-1207 -121.7,403.3 -243.4,805.6 -365.1,1207 -122.8,401.4 -250.2,784.8 -383.4,1150l-813.2 0c-202.6,-612.6 -390.9,-1259.4 -565,-1940.4 -174.1,-681.1 -327.2,-1352.6 -461.3,-2014.7l964.4 0c38.1,224.5 79.9,457.6 126.6,699.1 45.6,241.6 93.2,484.2 142.7,727.7 50.4,243.5 100.7,479.4 152.1,707.7 51.4,228.2 104.6,439.5 157.9,633.4 68.5,-186.5 135.1,-384.3 199.6,-593.5 65.7,-209.2 128.5,-418.6 189.3,-627.8 60.9,-209.2 117,-410.9 168.4,-604.9 51.4,-194.1 97.9,-367.2 139.9,-519.4l758.9 0zm3443.3 1552.3c0,194.1 23.8,369.1 71.3,525.1 47.6,156 116,290.1 205.5,402.4 89.4,112.2 198.8,198.7 328.2,259.6 129.4,60.9 277.8,91.3 445.2,91.3 163.6,0 311,-30.4 442.3,-91.3 131.2,-60.9 241.6,-147.4 331,-259.6 89.4,-112.4 157.9,-246.4 205.5,-402.4 47.5,-156 71.3,-331 71.3,-525.1 0,-194 -23.8,-370 -71.3,-527.8 -47.5,-157.9 -116.1,-293 -205.5,-405.2 -89.4,-112.2 -199.8,-198.8 -331,-259.7 -131.3,-60.8 -278.7,-91.3 -442.3,-91.3 -167.4,0 -315.8,31.4 -445.2,94.1 -129.4,62.8 -238.8,150.4 -328.2,262.6 -89.5,112.2 -157.9,247.3 -205.5,405.3 -47.5,157.8 -71.3,331.9 -71.3,522.1zm3019 0c0,338.6 -50.4,636.4 -151.2,893.2 -100.8,256.9 -238.8,471.9 -413.8,644.9 -175,173.2 -383.3,303.5 -624.9,390.9 -241.6,87.6 -501.2,131.4 -779,131.4 -270.2,0 -525.1,-43.8 -764.8,-131.4 -239.7,-87.4 -448.9,-217.7 -627.8,-390.9 -178.8,-173.1 -319.6,-388 -422.3,-644.9 -102.8,-256.7 -154.1,-554.5 -154.1,-893.2 0,-338.6 53.2,-636.3 159.8,-893.2 106.5,-256.7 250.2,-472.7 430.8,-647.6 180.8,-175.1 390,-306.3 627.9,-393.9 237.8,-87.4 487.9,-131.2 750.5,-131.2 270.1,0 525.1,43.8 764.8,131.2 239.7,87.6 448.9,218.8 627.8,393.9 178.8,175 319.5,390.9 422.3,647.6 102.7,256.9 154.1,554.6 154.1,893.2zm1900.5 -2020.3c593.6,0 1048.3,105.6 1364,316.8 315.9,211.1 473.7,539.3 473.7,984.4 0,277.8 -63.7,503.2 -191.2,676.3 -127.5,173.1 -311.1,309.2 -550.8,408.1 79.9,98.9 163.6,212.1 251.2,339.5 87.4,127.5 174.1,260.6 259.6,399.5 85.6,138.9 168.4,283.4 248.4,433.7 79.8,150.3 154.1,297.7 222.5,442.3l-994.9 0c-73.3,-129.4 -146.5,-260.6 -220.7,-393.7 -75.1,-133.2 -151.2,-262.6 -229.2,-388.1 -78.9,-125.7 -156,-244.5 -232.1,-356.7 -76,-112.2 -153.1,-214.1 -229.2,-305.4l-439.5 0 0 1444 -890.3 0 0 -3898c194.1,-38.1 394.8,-64.7 602.2,-79.9 207.3,-15.2 392.7,-22.9 556.3,-22.9zm51.4 759.1c-64.7,0 -122.7,1.9 -174.1,5.7 -51.4,3.9 -99.8,7.6 -145.6,11.5l0 1072.9 251.2 0c334.7,0 574.4,-41.8 719,-125.7 144.5,-83.7 216.8,-226.4 216.8,-428 0,-194.1 -73.2,-332 -219.7,-413.8 -146.5,-81.7 -362.4,-122.7 -647.8,-122.7zm5239.1 2476.9l0 764.8 -2642.4 0 0 -3955 890.3 0 0 3190.2 1752.1 0zm1461 40c41.9,3.7 90.4,6.6 145.6,8.5 55.2,2 120.9,2.9 196.9,2.9 445.2,0 775.3,-112.2 990.1,-336.7 215,-224.5 322.5,-534.6 322.5,-930.3 0,-414.7 -102.7,-728.5 -308.1,-941.6 -205.5,-213.1 -530.8,-319.6 -975.9,-319.6 -61,0 -123.7,0.9 -188.4,2.8 -64.6,2 -125.5,6.7 -182.6,14.4l0 2499.7zm2574 -1255.7c0,342.5 -53.3,641.2 -159.8,896.1 -106.6,254.8 -257.8,466.1 -453.8,633.5 -195.9,167.4 -434.7,292.9 -716.2,376.7 -281.6,83.7 -597.3,125.5 -947.4,125.5 -159.8,0 -346.2,-6.7 -559.3,-20 -212.9,-13.3 -422.3,-41 -627.7,-82.8l0 -3852.2c205.4,-38.1 419.4,-63.8 642.1,-77.1 222.5,-13.3 413.8,-20 573.5,-20 338.6,0 645.8,38.1 921.7,114.2 275.8,76.1 512.7,196 710.5,359.5 197.8,163.7 350.1,373 456.7,627.8 106.4,254.9 159.8,561.3 159.8,918.9zm3915.1 2060.4c-643,0 -1132.9,-178.9 -1469.5,-536.5 -336.8,-357.7 -505.1,-865.6 -505.1,-1523.9 0,-327.1 51.3,-619.1 154.1,-876 102.7,-256.9 243.5,-473.7 422.3,-650.6 178.9,-176.9 391.9,-311 639.1,-402.4 247.3,-91.3 515.7,-136.9 804.8,-136.9 167.4,0 319.5,12.4 456.5,37.1 137,24.8 256.8,53.3 359.5,85.6 102.7,32.3 188.3,65.6 256.9,99.8 68.5,34.3 117.9,61 148.4,79.9l-256.9 719.1c-121.8,-64.7 -263.5,-119.8 -425.1,-165.4 -161.7,-45.7 -345.3,-68.6 -550.8,-68.6 -136.9,0 -271,22.9 -402.3,68.6 -131.3,45.6 -247.3,118.8 -348.2,219.7 -100.9,100.9 -181.7,231.2 -242.5,390.9 -61,159.9 -91.3,353.9 -91.3,582.2 0,182.6 19.9,352.8 59.9,510.7 39.9,157.9 104.6,293.9 194,408.1 89.5,114.2 206.5,204.4 351,271 144.7,66.5 319.6,99.8 525.1,99.8 129.3,0 245.4,-7.6 348.1,-22.9 102.8,-15.1 194.1,-33.2 274,-54.1 79.8,-20.9 150.2,-44.8 211.2,-71.4 60.8,-26.6 116,-51.4 165.4,-74.1l245.5 713.4c-125.7,76.1 -302.6,144.5 -530.8,205.5 -228.3,60.8 -492.8,91.3 -793.3,91.3zm2499.8 -2060.4c0,194.1 23.8,369.1 71.3,525.1 47.6,156 116,290.1 205.5,402.4 89.4,112.2 198.8,198.7 328.2,259.6 129.4,60.9 277.8,91.3 445.2,91.3 163.6,0 311,-30.4 442.3,-91.3 131.2,-60.9 241.6,-147.4 331,-259.6 89.4,-112.4 157.9,-246.4 205.5,-402.4 47.5,-156 71.3,-331 71.3,-525.1 0,-194 -23.8,-370 -71.3,-527.8 -47.5,-157.9 -116.1,-293 -205.5,-405.2 -89.4,-112.2 -199.8,-198.8 -331,-259.7 -131.3,-60.8 -278.7,-91.3 -442.3,-91.3 -167.4,0 -315.8,31.4 -445.2,94.1 -129.4,62.8 -238.8,150.4 -328.2,262.6 -89.5,112.2 -157.9,247.3 -205.5,405.3 -47.5,157.8 -71.3,331.9 -71.3,522.1zm3019 0c0,338.6 -50.4,636.4 -151.3,893.2 -100.8,256.9 -238.8,471.9 -413.8,644.9 -175,173.2 -383.3,303.5 -624.9,390.9 -241.6,87.6 -501.2,131.4 -779,131.4 -270.2,0 -525.1,-43.8 -764.8,-131.4 -239.7,-87.4 -448.9,-217.7 -627.8,-390.9 -178.8,-173.1 -319.6,-388 -422.3,-644.9 -102.8,-256.7 -154.1,-554.5 -154.1,-893.2 0,-338.6 53.2,-636.3 159.8,-893.2 106.5,-256.7 250.2,-472.7 430.8,-647.6 180.8,-175.1 390,-306.3 627.9,-393.9 237.8,-87.4 487.9,-131.2 750.5,-131.2 270.1,0 525.1,43.8 764.8,131.2 239.7,87.6 448.9,218.8 627.8,393.9 178.8,175 319.5,390.9 422.3,647.6 102.7,256.9 154.1,554.6 154.1,893.2zm1792.1 -1974.6c68.5,125.5 147.4,280.6 237.8,465.2 89.3,184.5 182.6,384.2 279.6,599.3 98,214.9 194.1,434.7 289.1,659.1 96.1,224.5 185.6,435.6 269.3,633.5 83.7,-197.9 174.1,-409 269.1,-633.5 95.2,-224.4 191.3,-444.2 289.1,-659.1 97.1,-215 190.2,-414.8 279.7,-599.3 90.3,-184.5 169.3,-339.6 237.8,-465.2l810.4 0c38.1,262.6 73.3,556.5 105.6,881.8 32.3,325.3 60.9,663.9 85.6,1015.8 24.7,351.9 47.5,704.8 68.5,1058.6 20.9,353.9 39,686.8 54.2,998.8l-867.5 0c-11.5,-384.3 -26.7,-802.8 -45.7,-1255.6 -19,-452.8 -47.5,-909.3 -85.6,-1369.7 -68.5,159.8 -144.5,336.7 -229.2,530.8 -83.7,194 -166.5,388.1 -249.1,582.1 -81.9,194.1 -160.8,379.5 -236.9,556.5 -77.1,176.9 -141.8,328.1 -195,453.7l-622.1 0c-53.3,-125.5 -118,-276.8 -195,-453.7 -76.1,-176.9 -155.1,-362.4 -236.9,-556.5 -82.8,-194 -165.5,-388.1 -249.3,-582.1 -83.7,-194.1 -160.8,-371 -229.2,-530.8 -38,460.4 -66.5,916.9 -85.6,1369.7 -19,452.8 -34.2,871.2 -45.6,1255.6l-867.5 0c15.1,-312 33.2,-644.9 54.1,-998.8 20.9,-353.9 43.8,-706.7 68.6,-1058.6 24.7,-351.9 53.2,-690.5 85.6,-1015.8 32.3,-325.3 67.4,-619.2 105.5,-881.8l850.4 0zm5119.2 0c68.5,125.5 147.4,280.6 237.8,465.2 89.4,184.5 182.6,384.2 279.6,599.3 98,214.9 194.1,434.7 289.1,659.1 96.1,224.5 185.6,435.6 269.2,633.5 83.7,-197.9 174.1,-409 269.2,-633.5 95.2,-224.4 191.2,-444.2 289.1,-659.1 97.1,-215 190.2,-414.8 279.7,-599.3 90.3,-184.5 169.3,-339.6 237.8,-465.2l810.4 0c38.1,262.6 73.2,556.5 105.6,881.8 32.3,325.3 60.8,663.9 85.6,1015.8 24.7,351.9 47.5,704.8 68.5,1058.6 20.9,353.9 39,686.8 54.2,998.8l-867.4 0c-11.5,-384.3 -26.8,-802.8 -45.7,-1255.6 -19,-452.8 -47.6,-909.3 -85.6,-1369.7 -68.5,159.8 -144.5,336.7 -229.2,530.8 -83.7,194 -166.4,388.1 -249.1,582.1 -81.9,194.1 -160.8,379.5 -236.8,556.5 -77.1,176.9 -141.8,328.1 -195,453.7l-622.1 0c-53.3,-125.5 -118,-276.8 -195,-453.7 -76,-176.9 -155.1,-362.4 -236.8,-556.5 -82.8,-194 -165.6,-388.1 -249.3,-582.1 -83.7,-194.1 -160.8,-371 -229.2,-530.8 -38,460.4 -66.5,916.9 -85.6,1369.7 -19,452.8 -34.2,871.2 -45.6,1255.6l-867.5 0c15.1,-312 33.2,-644.9 54.1,-998.8 20.9,-353.9 43.7,-706.7 68.6,-1058.6 24.7,-351.9 53.2,-690.5 85.6,-1015.8 32.3,-325.3 67.4,-619.2 105.5,-881.8l850.4 0zm5615.7 4035c-277.7,0 -517.4,-39 -719,-117 -201.6,-78 -368.1,-186.5 -499.4,-325.3 -131.2,-138.9 -228.2,-304.4 -291,-496.5 -62.9,-192.2 -94.3,-404.2 -94.3,-636.3l0 -2459.8 890.3 0 0 2385.5c0,159.9 18.1,295.9 54.2,408.1 36.2,112.2 85.6,203.5 148.4,273.9 62.7,70.4 138.9,120.9 228.3,151.2 89.4,30.4 187.4,45.7 293.9,45.7 216.8,0 392.9,-66.6 527.9,-199.8 135,-133.1 202.5,-359.5 202.5,-679.2l0 -2385.5 890.3 0 0 2459.8c0,232.1 -32.3,445.2 -97,639.1 -64.7,194.1 -163.6,360.6 -296.8,499.4 -133.1,138.8 -302.4,246.4 -507.9,322.5 -205.5,76.1 -448.9,114.2 -730.6,114.2zm5142.3 -79.9c-254.9,-452.8 -530.8,-899.9 -827.5,-1341.2 -296.8,-441.4 -612.6,-858 -947.4,-1249.9l0 2591 -879 0 0 -3955 724.9 0c125.5,125.5 264.4,279.6 416.6,462.2 152.1,182.7 307.2,377.7 465.1,585 157.9,207.4 314.8,422.3 470.9,645 156,222.5 302.4,436.6 439.5,642l0 -2334.2 884.6 0 0 3955 -747.6 0zm1660.7 -3955l890.3 0 0 3955 -890.3 0 0 -3955zm4737 0l0 759 -1192.8 0 0 3196.1 -890.3 0 0 -3196.1 -1192.8 0 0 -759 3275.9 0zm2213.4 1621.8c159.8,-269.2 312,-538.4 456.5,-807.5 145.6,-270.2 278.7,-541.2 400.5,-814.2l981.6 0c-216.8,426.2 -441.4,838.9 -673.5,1238.5 -232.1,399.5 -477.5,800.8 -736.2,1204.1l0 1512.4 -890.3 0 0 -1500.9c-258.8,-403.3 -505.1,-806.6 -739.1,-1210 -234,-403.3 -459.5,-818 -676.3,-1244.2l1033 0c121.7,273 253,544.1 392.9,814.2 140.8,269.1 291,538.3 450.8,807.5z"/>
  <polygon class="fil1" points="-0,5579.2 72203.3,5579.2 72203.3,5856.8 -0,5856.8 "/>
 </g>
</svg>
